<svg width="150" height="55" viewBox="0 0 150 55" fill="none" xmlns="http://www.w3.org/2000/svg">
<rect width="150" height="55" fill="white"/>
<path d="M24.2256 35V20.76H27.2056C27.859 20.76 28.4123 20.86 28.8656 21.06C29.3323 21.26 29.7123 21.5267 30.0056 21.86C30.299 22.1933 30.5056 22.58 30.6256 23.02C30.759 23.4467 30.8256 23.8933 30.8256 24.36V24.88C30.8256 25.2667 30.7923 25.5933 30.7256 25.86C30.6723 26.1267 30.5856 26.36 30.4656 26.56C30.239 26.9333 29.8923 27.2533 29.4256 27.52C29.9056 27.7467 30.259 28.08 30.4856 28.52C30.7123 28.96 30.8256 29.56 30.8256 30.32V31.12C30.8256 32.3733 30.519 33.3333 29.9056 34C29.3056 34.6667 28.339 35 27.0056 35H24.2256ZM26.2656 28.4V32.96H27.1456C27.559 32.96 27.879 32.9 28.1056 32.78C28.3456 32.66 28.5256 32.4933 28.6456 32.28C28.7656 32.0667 28.839 31.8133 28.8656 31.52C28.8923 31.2267 28.9056 30.9067 28.9056 30.56C28.9056 30.2 28.8856 29.8867 28.8456 29.62C28.8056 29.3533 28.7256 29.1267 28.6056 28.94C28.4723 28.7533 28.2923 28.62 28.0656 28.54C27.839 28.4467 27.539 28.4 27.1656 28.4H26.2656ZM26.2656 22.68V26.6H27.1856C27.8656 26.6 28.319 26.4333 28.5456 26.1C28.7856 25.7533 28.9056 25.2533 28.9056 24.6C28.9056 23.96 28.7723 23.48 28.5056 23.16C28.2523 22.84 27.7856 22.68 27.1056 22.68H26.2656ZM36.6269 30.02L35.6269 24.86H35.5869L34.5869 30.02H36.6269ZM31.5869 35L34.7669 20.76H36.4669L39.6469 35H37.6069L37.0069 31.94H34.2269L33.6269 35H31.5869ZM47.1314 30.94V31.82C47.1314 32.26 47.0447 32.68 46.8714 33.08C46.7114 33.4667 46.4847 33.8133 46.1914 34.12C45.8981 34.4267 45.5514 34.6733 45.1514 34.86C44.7647 35.0333 44.3447 35.12 43.8914 35.12C43.5047 35.12 43.1114 35.0667 42.7114 34.96C42.3114 34.8533 41.9514 34.6667 41.6314 34.4C41.3114 34.1333 41.0447 33.7933 40.8314 33.38C40.6314 32.9533 40.5314 32.4133 40.5314 31.76V23.92C40.5314 23.4533 40.6114 23.02 40.7714 22.62C40.9314 22.22 41.1581 21.8733 41.4514 21.58C41.7447 21.2867 42.0914 21.06 42.4914 20.9C42.9047 20.7267 43.3581 20.64 43.8514 20.64C44.8114 20.64 45.5914 20.9533 46.1914 21.58C46.4847 21.8867 46.7114 22.2533 46.8714 22.68C47.0447 23.0933 47.1314 23.5467 47.1314 24.04V24.84H45.0914V24.16C45.0914 23.76 44.9781 23.4133 44.7514 23.12C44.5247 22.8267 44.2181 22.68 43.8314 22.68C43.3247 22.68 42.9847 22.84 42.8114 23.16C42.6514 23.4667 42.5714 23.86 42.5714 24.34V31.62C42.5714 32.0333 42.6581 32.38 42.8314 32.66C43.0181 32.94 43.3447 33.08 43.8114 33.08C43.9447 33.08 44.0847 33.06 44.2314 33.02C44.3914 32.9667 44.5381 32.8867 44.6714 32.78C44.7914 32.6733 44.8914 32.5267 44.9714 32.34C45.0514 32.1533 45.0914 31.92 45.0914 31.64V30.94H47.1314ZM48.7959 35V20.76H50.8359V27.26H50.8759L53.8559 20.76H55.8959L53.1159 26.46L56.4159 35H54.2559L51.9359 28.68L50.8359 30.74V35H48.7959ZM57.1916 24.12C57.1916 23.5467 57.2916 23.04 57.4916 22.6C57.6916 22.16 57.9582 21.7933 58.2916 21.5C58.6116 21.22 58.9716 21.0067 59.3716 20.86C59.7849 20.7133 60.1982 20.64 60.6116 20.64C61.0249 20.64 61.4316 20.7133 61.8316 20.86C62.2449 21.0067 62.6182 21.22 62.9516 21.5C63.2716 21.7933 63.5316 22.16 63.7316 22.6C63.9316 23.04 64.0316 23.5467 64.0316 24.12V24.84H61.9916V24.12C61.9916 23.6267 61.8516 23.2667 61.5716 23.04C61.3049 22.8 60.9849 22.68 60.6116 22.68C60.2382 22.68 59.9116 22.8 59.6316 23.04C59.3649 23.2667 59.2316 23.6267 59.2316 24.12V31.64C59.2316 32.1333 59.3649 32.5 59.6316 32.74C59.9116 32.9667 60.2382 33.08 60.6116 33.08C60.9849 33.08 61.3049 32.9667 61.5716 32.74C61.8516 32.5 61.9916 32.1333 61.9916 31.64V28.96H60.3716V27.16H64.0316V31.64C64.0316 32.24 63.9316 32.7533 63.7316 33.18C63.5316 33.6067 63.2716 33.96 62.9516 34.24C62.6182 34.5333 62.2449 34.7533 61.8316 34.9C61.4316 35.0467 61.0249 35.12 60.6116 35.12C60.1982 35.12 59.7849 35.0467 59.3716 34.9C58.9716 34.7533 58.6116 34.5333 58.2916 34.24C57.9582 33.96 57.6916 33.6067 57.4916 33.18C57.2916 32.7533 57.1916 32.24 57.1916 31.64V24.12ZM67.8672 22.68V27.12H69.0272C69.3872 27.12 69.6739 27.0733 69.8872 26.98C70.1005 26.8733 70.2672 26.7267 70.3872 26.54C70.4939 26.3533 70.5672 26.1267 70.6072 25.86C70.6472 25.58 70.6672 25.26 70.6672 24.9C70.6672 24.54 70.6472 24.2267 70.6072 23.96C70.5672 23.68 70.4872 23.44 70.3672 23.24C70.1139 22.8667 69.6339 22.68 68.9272 22.68H67.8672ZM65.8272 35V20.76H69.1072C71.5072 20.76 72.7072 22.1533 72.7072 24.94C72.7072 25.78 72.5739 26.4933 72.3072 27.08C72.0539 27.6667 71.6005 28.14 70.9472 28.5L73.1472 35H70.9872L69.0872 28.92H67.8672V35H65.8272ZM74.2228 24.12C74.2228 23.5467 74.3228 23.04 74.5228 22.6C74.7228 22.16 74.9895 21.7933 75.3228 21.5C75.6428 21.22 76.0028 21.0067 76.4028 20.86C76.8161 20.7133 77.2295 20.64 77.6428 20.64C78.0561 20.64 78.4628 20.7133 78.8628 20.86C79.2761 21.0067 79.6495 21.22 79.9828 21.5C80.3028 21.7933 80.5628 22.16 80.7628 22.6C80.9628 23.04 81.0628 23.5467 81.0628 24.12V31.64C81.0628 32.24 80.9628 32.7533 80.7628 33.18C80.5628 33.6067 80.3028 33.96 79.9828 34.24C79.6495 34.5333 79.2761 34.7533 78.8628 34.9C78.4628 35.0467 78.0561 35.12 77.6428 35.12C77.2295 35.12 76.8161 35.0467 76.4028 34.9C76.0028 34.7533 75.6428 34.5333 75.3228 34.24C74.9895 33.96 74.7228 33.6067 74.5228 33.18C74.3228 32.7533 74.2228 32.24 74.2228 31.64V24.12ZM76.2628 31.64C76.2628 32.1333 76.3961 32.5 76.6628 32.74C76.9428 32.9667 77.2695 33.08 77.6428 33.08C78.0161 33.08 78.3361 32.9667 78.6028 32.74C78.8828 32.5 79.0228 32.1333 79.0228 31.64V24.12C79.0228 23.6267 78.8828 23.2667 78.6028 23.04C78.3361 22.8 78.0161 22.68 77.6428 22.68C77.2695 22.68 76.9428 22.8 76.6628 23.04C76.3961 23.2667 76.2628 23.6267 76.2628 24.12V31.64ZM89.4584 20.76V31.8C89.4584 32.2667 89.3718 32.7 89.1984 33.1C89.0384 33.4867 88.8051 33.8333 88.4984 34.14C88.1918 34.4467 87.8384 34.6867 87.4384 34.86C87.0384 35.0333 86.6118 35.12 86.1584 35.12C85.7051 35.12 85.2784 35.0333 84.8784 34.86C84.4918 34.6867 84.1451 34.4467 83.8384 34.14C83.5318 33.8333 83.2918 33.4867 83.1184 33.1C82.9451 32.7 82.8584 32.2667 82.8584 31.8V20.76H84.8984V31.6C84.8984 32.1067 85.0184 32.48 85.2584 32.72C85.4984 32.96 85.7984 33.08 86.1584 33.08C86.5184 33.08 86.8184 32.96 87.0584 32.72C87.2984 32.48 87.4184 32.1067 87.4184 31.6V20.76H89.4584ZM91.2941 35V20.76H93.2541L96.3341 29.34H96.3741V20.76H98.4141V35H96.4941L93.3741 26.44H93.3341V35H91.2941ZM100.261 35V20.76H103.281C104.454 20.76 105.341 21.08 105.941 21.72C106.554 22.36 106.861 23.2667 106.861 24.44V31.1C106.861 32.4333 106.534 33.42 105.881 34.06C105.241 34.6867 104.314 35 103.101 35H100.261ZM102.301 22.68V33.08H103.241C103.814 33.08 104.221 32.94 104.461 32.66C104.701 32.3667 104.821 31.9133 104.821 31.3V24.44C104.821 23.88 104.707 23.4467 104.481 23.14C104.254 22.8333 103.841 22.68 103.241 22.68H102.301ZM108.776 35V20.76H114.856V22.68H110.816V26.86H114.336V28.78H110.816V32.96H114.856V35H108.776ZM118.219 22.68V27.12H119.379C119.739 27.12 120.025 27.0733 120.239 26.98C120.452 26.8733 120.619 26.7267 120.739 26.54C120.845 26.3533 120.919 26.1267 120.959 25.86C120.999 25.58 121.019 25.26 121.019 24.9C121.019 24.54 120.999 24.2267 120.959 23.96C120.919 23.68 120.839 23.44 120.719 23.24C120.465 22.8667 119.985 22.68 119.279 22.68H118.219ZM116.179 35V20.76H119.459C121.859 20.76 123.059 22.1533 123.059 24.94C123.059 25.78 122.925 26.4933 122.659 27.08C122.405 27.6667 121.952 28.14 121.299 28.5L123.499 35H121.339L119.439 28.92H118.219V35H116.179Z" fill="black"/>
</svg>
