<svg width="150" height="55" viewBox="0 0 150 55" fill="none" xmlns="http://www.w3.org/2000/svg">
<rect width="150" height="55" fill="white"/>
<path d="M28.1861 30.94V31.82C28.1861 32.26 28.0994 32.68 27.9261 33.08C27.7661 33.4667 27.5394 33.8133 27.2461 34.12C26.9528 34.4267 26.6061 34.6733 26.2061 34.86C25.8194 35.0333 25.3994 35.12 24.9461 35.12C24.5594 35.12 24.1661 35.0667 23.7661 34.96C23.3661 34.8533 23.0061 34.6667 22.6861 34.4C22.3661 34.1333 22.0994 33.7933 21.8861 33.38C21.6861 32.9533 21.5861 32.4133 21.5861 31.76V23.92C21.5861 23.4533 21.6661 23.02 21.8261 22.62C21.9861 22.22 22.2128 21.8733 22.5061 21.58C22.7994 21.2867 23.1461 21.06 23.5461 20.9C23.9594 20.7267 24.4128 20.64 24.9061 20.64C25.8661 20.64 26.6461 20.9533 27.2461 21.58C27.5394 21.8867 27.7661 22.2533 27.9261 22.68C28.0994 23.0933 28.1861 23.5467 28.1861 24.04V24.84H26.1461V24.16C26.1461 23.76 26.0328 23.4133 25.8061 23.12C25.5794 22.8267 25.2728 22.68 24.8861 22.68C24.3794 22.68 24.0394 22.84 23.8661 23.16C23.7061 23.4667 23.6261 23.86 23.6261 24.34V31.62C23.6261 32.0333 23.7128 32.38 23.8861 32.66C24.0728 32.94 24.3994 33.08 24.8661 33.08C24.9994 33.08 25.1394 33.06 25.2861 33.02C25.4461 32.9667 25.5928 32.8867 25.7261 32.78C25.8461 32.6733 25.9461 32.5267 26.0261 32.34C26.1061 32.1533 26.1461 31.92 26.1461 31.64V30.94H28.1861ZM29.7306 24.12C29.7306 23.5467 29.8306 23.04 30.0306 22.6C30.2306 22.16 30.4973 21.7933 30.8306 21.5C31.1506 21.22 31.5106 21.0067 31.9106 20.86C32.324 20.7133 32.7373 20.64 33.1506 20.64C33.564 20.64 33.9706 20.7133 34.3706 20.86C34.784 21.0067 35.1573 21.22 35.4906 21.5C35.8106 21.7933 36.0706 22.16 36.2706 22.6C36.4706 23.04 36.5706 23.5467 36.5706 24.12V31.64C36.5706 32.24 36.4706 32.7533 36.2706 33.18C36.0706 33.6067 35.8106 33.96 35.4906 34.24C35.1573 34.5333 34.784 34.7533 34.3706 34.9C33.9706 35.0467 33.564 35.12 33.1506 35.12C32.7373 35.12 32.324 35.0467 31.9106 34.9C31.5106 34.7533 31.1506 34.5333 30.8306 34.24C30.4973 33.96 30.2306 33.6067 30.0306 33.18C29.8306 32.7533 29.7306 32.24 29.7306 31.64V24.12ZM31.7706 31.64C31.7706 32.1333 31.904 32.5 32.1706 32.74C32.4506 32.9667 32.7773 33.08 33.1506 33.08C33.524 33.08 33.844 32.9667 34.1106 32.74C34.3906 32.5 34.5306 32.1333 34.5306 31.64V24.12C34.5306 23.6267 34.3906 23.2667 34.1106 23.04C33.844 22.8 33.524 22.68 33.1506 22.68C32.7773 22.68 32.4506 22.8 32.1706 23.04C31.904 23.2667 31.7706 23.6267 31.7706 24.12V31.64ZM44.9663 20.76V31.8C44.9663 32.2667 44.8796 32.7 44.7063 33.1C44.5463 33.4867 44.3129 33.8333 44.0063 34.14C43.6996 34.4467 43.3463 34.6867 42.9463 34.86C42.5463 35.0333 42.1196 35.12 41.6663 35.12C41.2129 35.12 40.7863 35.0333 40.3863 34.86C39.9996 34.6867 39.6529 34.4467 39.3463 34.14C39.0396 33.8333 38.7996 33.4867 38.6263 33.1C38.4529 32.7 38.3663 32.2667 38.3663 31.8V20.76H40.4063V31.6C40.4063 32.1067 40.5263 32.48 40.7663 32.72C41.0063 32.96 41.3063 33.08 41.6663 33.08C42.0263 33.08 42.3263 32.96 42.5663 32.72C42.8063 32.48 42.9263 32.1067 42.9263 31.6V20.76H44.9663ZM46.8019 35V20.76H48.7619L51.8419 29.34H51.8819V20.76H53.9219V35H52.0019L48.8819 26.44H48.8419V35H46.8019ZM57.1086 35V22.68H54.7486V20.76H61.5086V22.68H59.1486V35H57.1086ZM64.4492 22.68V27.12H65.6092C65.9692 27.12 66.2559 27.0733 66.4692 26.98C66.6826 26.8733 66.8492 26.7267 66.9692 26.54C67.0759 26.3533 67.1492 26.1267 67.1892 25.86C67.2292 25.58 67.2492 25.26 67.2492 24.9C67.2492 24.54 67.2292 24.2267 67.1892 23.96C67.1492 23.68 67.0692 23.44 66.9492 23.24C66.6959 22.8667 66.2159 22.68 65.5092 22.68H64.4492ZM62.4092 35V20.76H65.6892C68.0892 20.76 69.2892 22.1533 69.2892 24.94C69.2892 25.78 69.1559 26.4933 68.8892 27.08C68.6359 27.6667 68.1826 28.14 67.5292 28.5L69.7292 35H67.5692L65.6692 28.92H64.4492V35H62.4092ZM72.4733 35V28.98L69.6733 20.76H71.8333L73.4733 26.42H73.5133L75.1533 20.76H77.3133L74.5133 28.98V35H72.4733ZM82.0381 35V20.76H83.9981L86.6181 28.3H86.6581L89.2581 20.76H91.2381V35H89.1981V26.34H89.1581L87.1381 32.46H86.1181L84.1181 26.34H84.0781V35H82.0381ZM97.2714 30.02L96.2714 24.86H96.2314L95.2314 30.02H97.2714ZM92.2314 35L95.4114 20.76H97.1114L100.291 35H98.2514L97.6514 31.94H94.8714L94.2714 35H92.2314ZM101.542 35V22.68H99.1822V20.76H105.942V22.68H103.582V35H101.542ZM108.883 22.68V27.12H110.043C110.403 27.12 110.689 27.0733 110.903 26.98C111.116 26.8733 111.283 26.7267 111.403 26.54C111.509 26.3533 111.583 26.1267 111.623 25.86C111.663 25.58 111.683 25.26 111.683 24.9C111.683 24.54 111.663 24.2267 111.623 23.96C111.583 23.68 111.503 23.44 111.383 23.24C111.129 22.8667 110.649 22.68 109.943 22.68H108.883ZM106.843 35V20.76H110.123C112.523 20.76 113.723 22.1533 113.723 24.94C113.723 25.78 113.589 26.4933 113.323 27.08C113.069 27.6667 112.616 28.14 111.963 28.5L114.163 35H112.003L110.103 28.92H108.883V35H106.843ZM115.418 35V20.76H117.458V35H115.418ZM118.44 35L121.32 27.54L118.66 20.76H120.82L122.36 24.98L123.92 20.76H126.08L123.36 27.54L126.3 35H124.14L122.36 30.2L120.6 35H118.44Z" fill="black"/>
</svg>
