<?xml version="1.0" encoding="UTF-8"?><svg id="svg2" xmlns="http://www.w3.org/2000/svg" viewBox="0 0 466.27 395.8"><defs><style>.cls-1{fill:#fff;}</style></defs><g id="g3320" transform="translate(1.889225,-2.1891937)"><g><g><g><path class="cls-1" d="M37.61,241.8l1.2,1c-1.3-9-2-18.8,.6-27.4,3.9-13.8,8.8-27.2,11.3-41.5,2-11.1,4.3-23.6,3-34.3-1.5,5.8-3,11.5-6.2,16.5-12.1,18.7-24.5,40.7-16,64.5-.2,.3-.5,.6-.8,.4-3.4-7.9-4.2-16.8-6.4-25.2-5.9-22.3-23-41-18-66.8-2.7,5.6-3.7,11.9-5.1,18-3,15.8,0,32.5,4.3,47.1,5.3,18.1,23,31.1,32.1,47.7Z"/><path class="cls-1" d="M33.01,126c4-8.2,10.5-16,18.3-21.8,17.2-13,36-29.8,36.3-51.8-5.8,15.8-23.1,22.4-34.6,33.2-6.1,5.7-10.8,12.6-13.5,19.8l-.4-.3c1.4-6.4,4.1-12.1,6-18.3,5-16.8,4.1-36.9,20.5-48.2-8.4,2.2-15.5,7.6-21.8,14.6h0c-13.3,14.7-12.1,36.4-10.4,55.6,.6,6,.3,11.1-.4,17.2Z"/><path class="cls-1" d="M53.01,78.1c9.2-8.6,19.8-15,27.6-25.2,9.3-12.3,17.4-26.1,29.6-36.7-16.5,6.4-34.3,13-45,30-6.3,9.9-7.3,21.6-12.2,31.9Z"/><path class="cls-1" d="M59.91,121.6c4-8.1,6.5-17.3,7.6-26.2-1.5,3.8-3.8,7.3-7,10.3-13.4,12.7-29.1,25.1-32.1,43.1-.4,2.6-.7,5.2-1.4,7.7-.6,.3-.6-.4-.8-.6l1.7-22.2c1.6-21.7-9.8-45.8,2.7-64.9-.4-.1-.7,.3-1,.4-11.4,14.5-19,30.5-19,50,0,24.1,13.9,41,15.6,63.6,3.6-23.6,23.4-40.4,33.7-61.2Z"/><path class="cls-1" d="M33.41,269.7c12.9,10.2,28.3,18.1,40.1,27.1-2.3-5.9-6.1-11.3-7.6-17.4-6.9-27.9-3.1-60.3-15-86.1,2.2,14.7-3.6,27.7-4.9,41.7-1.1,11.5,.9,22.7,5.4,32.3,1.3,2.9,3.7,5.4,4.4,8.4-4.3-3.9-7.4-8.8-10.3-13.6C31.61,239.6,2.51,225,.51,197.6H.51c-1,12.2,.1,25.1,4.1,35.9,5.5,14.8,16.3,26.3,28.8,36.2Z"/><path class="cls-1" d="M208.81,343.6c-22.5,0-42.7,10.9-62.4,19.1-17.9,7.4-41.6,6-57.5-5,7.8,9.8,18.3,15.9,29.2,20,20.1,8,43.6,1.9,60.8-9.1,12.3-7.9,22.9-19.1,37.6-19.1,23.7,0,48.6,24.3,69.9,46.3,3.3-2.7,6.8-5.5,9.5-8.6-22.3-21.2-53.8-43.6-87.1-43.6Z"/><path class="cls-1" d="M168.61,346c3.5-.9,7.7-.6,10.9-1.8-13.4-2.7-26.3-6.8-36.7-16.3-14.9-13.6-28.1-28.1-44-38.7,12.5,16.8,16,41.2,38.8,49.7,4,1.5,8.7,1.8,12.2,4-4.4,.7-8.2-.7-12.3-1.6-29.4-6.3-65.2,1.8-87.2-23.2,8.3,16.4,25.5,29.3,42.1,34.7,25.5,8.6,52.2-.9,76.2-6.8Z"/><path class="cls-1" d="M119.41,333.7c-19.1-15.4-22-38.5-30.5-58.7-5.3-12.6-13.9-23.9-23.1-34.9,10.1,20.2,5.7,46.2,18.8,65.2,4.1,6,9.8,11.7,15.1,16.4l-.2,.3c-4.8-2.2-9.1-5.6-13.5-9.2-22.9-19.1-57.4-21.5-71.1-52.6h0c3.7,22.8,21.8,43,41.4,55.8,18.6,12.2,42.5,10.9,63.1,17.7Z"/></g><g><path class="cls-1" d="M385.51,52.9c7.8,10.3,18.4,16.6,27.6,25.2-4.9-10.3-5.9-22-12.1-31.9-10.7-17-28.5-23.6-45-30,12,10.6,20.1,24.3,29.5,36.7Z"/><path class="cls-1" d="M421.01,86.8c1.8,6.1,4.5,11.9,6,18.3l-.4,.3c-2.7-7.2-7.4-14.1-13.5-19.8-11.5-10.9-28.8-17.4-34.5-33.3,.3,22.1,19.1,38.9,36.3,51.8,7.7,5.8,14.3,13.6,18.3,21.8-.7-6.1-1-11.2-.4-17.1,1.8-19.3,2.9-40.9-10.3-55.6h0c-6.3-7-13.4-12.5-21.8-14.6,16.2,11.3,15.3,31.4,20.3,48.2Z"/><path class="cls-1" d="M438.21,133.6l1.7,22.2c-.2,.2-.2,.8-.8,.6-.7-2.5-1-5.1-1.4-7.7-3-17.9-18.8-30.4-32.1-43.1-3.2-3-5.5-6.5-7-10.3,1.1,8.9,3.6,18.1,7.6,26.2,10.3,20.8,30.1,37.6,33.7,61.3,1.7-22.7,15.6-39.5,15.6-63.6,0-19.5-7.6-35.5-19-50-.3-.2-.6-.5-1-.4,12.5,19.1,1,43.2,2.7,64.8Z"/><path class="cls-1" d="M441.81,195.7c-2.2,8.4-3,17.4-6.4,25.2-.3,.2-.6-.2-.8-.4,8.5-23.8-3.9-45.7-16-64.5-3.2-4.9-4.7-10.7-6.2-16.5-1.3,10.8,1,23.2,3,34.3,2.6,14.3,7.4,27.7,11.3,41.5,2.6,8.6,1.9,18.3,.6,27.4l1.2-1c9-16.6,26.8-29.6,32.2-47.8,4.3-14.5,7.3-31.3,4.3-47.1h0c-1.4-6.1-2.5-12.4-5.1-18,4.9,25.9-12.2,44.6-18.1,66.9Z"/><path class="cls-1" d="M319.61,362.7c-19.8-8.2-39.9-19.1-62.4-19.1-33.2,0-64.8,22.5-86.9,43.6,2.7,3.1,6.2,6,9.5,8.6,21.2-21.9,46.2-46.3,69.9-46.3,14.7,0,25.3,11.2,37.6,19.1,17.1,10.9,40.6,17.1,60.8,9.1,10.8-4.1,21.3-10.2,29.2-20-16,10.9-39.8,12.4-57.7,5Z"/><path class="cls-1" d="M420.71,261.9c-3,4.8-6,9.8-10.3,13.6,.7-2.9,3.1-5.5,4.4-8.4,4.5-9.7,6.5-20.8,5.4-32.3-1.4-14-7.2-27-4.9-41.7-12,25.8-8.1,58.2-15,86.1-1.5,6.2-5.3,11.6-7.6,17.4,11.8-9,27.2-16.9,40.1-27.1,12.5-9.8,23.3-21.4,29-36.4,4.1-10.8,5.1-23.7,4.1-35.9-2.1,27.6-31.3,42.2-45.2,64.7Z"/><path class="cls-1" d="M379.91,312.8c-4.4,3.6-8.7,7-13.5,9.2l-.2-.3c5.3-4.8,11-10.5,15.1-16.4,13.1-19,8.7-45.1,18.8-65.2-9.2,11-17.8,22.3-23.1,34.9-8.5,20.2-11.4,43.3-30.5,58.7,20.6-6.8,44.5-5.5,63-17.6,19.5-12.8,37.6-33,41.4-55.8-13.6,31-48,33.4-71,52.5Z"/><path class="cls-1" d="M328.61,341.4c-4.1,.9-7.9,2.2-12.3,1.6,3.5-2.2,8.1-2.5,12.2-4,22.8-8.6,26.3-33,38.8-49.7-15.9,10.6-29.1,25.1-44,38.7-10.4,9.5-23.3,13.5-36.7,16.3,3.2,1.2,7.4,.9,10.9,1.8,24.1,6,50.7,15.4,76.3,6.9,16.5-5.5,33.7-18.4,42.1-34.7-22.1,24.9-58,16.9-87.3,23.1Z"/></g></g><path class="cls-1" d="M233.01,0C142.01,0,68.01,74,68.01,165s74,165,165,165,165-74,165-165S324.01,0,233.01,0Zm0,196.5c-17.4,0-31.5-14.1-31.5-31.5s14.1-31.5,31.5-31.5,31.5,14.1,31.5,31.5-14.1,31.5-31.5,31.5Zm23.7-58c-5.8-5.2-13.3-8.5-21.6-9v-27c15.7,.5,30,6.8,40.7,16.9l-19.1,19.1Zm-25.7-9c-8.3,.5-15.8,3.8-21.6,9l-19.1-19.1c10.7-10.1,25-16.4,40.7-16.9v27h0Zm-24.4,11.9c-5.2,5.8-8.5,13.3-9,21.6h-27c.5-15.7,6.8-30,16.9-40.7l19.1,19.1Zm-9,25.6c.5,8.3,3.8,15.8,9,21.6l-19.1,19.1c-10.1-10.7-16.4-25-16.9-40.7h27Zm11.8,24.5c5.8,5.2,13.3,8.5,21.6,9v27c-15.7-.5-30-6.8-40.7-16.9l19.1-19.1Zm25.6,8.9c8.3-.5,15.8-3.8,21.6-9l19.1,19.1c-10.7,10.1-25,16.4-40.7,16.9v-27Zm24.5-11.8c5.2-5.8,8.5-13.3,9-21.6h27c-.5,15.7-6.8,30-16.9,40.7l-19.1-19.1Zm9-25.6c-.5-8.3-3.8-15.8-9-21.6l19.1-19.1c10.1,10.7,16.4,25,16.9,40.7h-27Zm10.1-46.4c-11.5-10.8-26.7-17.6-43.6-18.1v-30c25.1,.5,47.9,10.7,64.8,26.9l-21.2,21.2Zm-47.6-18.1c-16.8,.5-32.1,7.3-43.6,18.1l-21.2-21.2c16.9-16.2,39.7-26.4,64.8-26.9v30h0Zm-46.4,20.9c-10.8,11.5-17.6,26.7-18.1,43.6h-30c.5-25.1,10.7-47.9,26.9-64.8l21.2,21.2Zm-18,47.6c.5,16.8,7.3,32.1,18.1,43.6l-21.3,21.2c-16.2-16.9-26.4-39.7-26.9-64.8h30.1Zm20.9,46.4c11.5,10.8,26.7,17.6,43.6,18.1v30c-25.1-.5-47.9-10.7-64.8-26.9l21.2-21.2Zm47.5,18c16.8-.5,32.1-7.3,43.6-18.1l21.2,21.2c-16.9,16.2-39.7,26.4-64.8,26.9v-30Zm46.4-20.9c10.8-11.5,17.6-26.7,18.1-43.6h30c-.5,25.1-10.7,47.9-26.9,64.8l-21.2-21.2Zm18.1-47.5c-.5-16.8-7.3-32.1-18.1-43.6l21.2-21.2c16.2,16.9,26.4,39.7,26.9,64.8h-30Zm3.1-70.4c-17.6-16.9-41.4-27.5-67.6-28v-26.6c33.5,.5,63.9,14.1,86.3,35.8l-18.7,18.8Zm-71.6-28.1c-26.2,.5-50,11.1-67.6,28l-18.7-18.7c22.4-21.7,52.8-35.3,86.3-35.8v26.5Zm-70.4,30.9c-16.9,17.6-27.5,41.4-28,67.6h-26.5c.5-33.5,14.1-63.9,35.8-86.3l18.7,18.7Zm-28,71.6c.5,26.2,11.1,50,28,67.6l-18.7,18.7c-21.7-22.4-35.3-52.8-35.8-86.3h26.5Zm30.8,70.4c17.6,16.9,41.4,27.5,67.6,28v26.5c-33.5-.5-63.9-14.1-86.3-35.8l18.7-18.7Zm71.6,28.1c26.2-.5,50-11.1,67.6-28l18.7,18.7c-22.4,21.7-52.8,35.3-86.3,35.8v-26.5Zm70.5-30.9c16.9-17.6,27.5-41.4,28-67.6h26.5c-.5,33.5-14.1,63.9-35.8,86.3l-18.7-18.7Zm28-71.6c-.5-26.2-11.1-50-28-67.6l18.7-18.7c21.7,22.4,35.3,52.8,35.8,86.3h-26.5Zm-9.3-92c-23.2-22.5-54.5-36.5-89.2-37V4c42.9,.5,81.8,17.9,110.4,45.8l-21.2,21.2Zm-93.2-37c-34.6,.5-66,14.5-89.2,37l-21.1-21.2C149.31,21.9,188.21,4.5,231.11,4v30h-.1Zm-92,39.8c-22.5,23.2-36.5,54.5-37,89.2h-30c.5-42.9,17.9-81.8,45.8-110.4l21.2,21.2Zm-36.9,93.2c.5,34.6,14.5,66,37,89.2l-21.3,21.1c-27.9-28.5-45.2-67.4-45.7-110.3h30Zm39.8,92c23.2,22.5,54.5,36.5,89.2,37v30c-42.9-.5-81.8-17.9-110.4-45.8l21.2-21.2Zm93.1,37c34.6-.5,66-14.5,89.2-37l21.2,21.2c-28.6,27.9-67.5,45.3-110.4,45.8v-30h0Zm92-39.9c22.5-23.2,36.5-54.5,37-89.2h30c-.5,42.9-17.9,81.8-45.8,110.4l-21.2-21.2Zm37-93.1c-.5-34.6-14.5-66-37-89.2l21.2-21.2c27.9,28.6,45.3,67.5,45.8,110.4h-30Z"/><g><polygon id="polygon59" class="cls-1" points="242.51 126.8 241.51 126.9 241.51 128.1 242.51 128 242.51 126.8"/><rect id="rect61" class="cls-1" x="240.01" y="125.2" width="1.3" height="1"/><polygon id="polygon63" class="cls-1" points="237.61 124.9 238.81 125.1 238.91 124.1 237.71 123.9 237.61 124.9"/><polygon id="rect65" class="cls-1" points="236.61 124.5 235.51 124.4 235.61 123.4 236.81 123.5 236.61 124.5"/><rect id="rect67" class="cls-1" x="227.01" y="123.2" width="1.3" height="1"/><polygon id="polygon69" class="cls-1" points="224.11 125.2 225.31 125.4 225.41 124.4 224.31 124.2 224.11 125.2"/><polygon id="rect71" class="cls-1" points="224.31 126.8 222.91 126.4 223.21 125.4 224.51 125.8 224.31 126.8"/><polygon id="rect73" class="cls-1" points="221.91 128 221.71 127 222.71 126.8 222.91 127.8 221.91 128"/><polygon id="polygon75" class="cls-1" points="91.41 231.5 91.41 233.7 92.41 233.7 92.21 231.2 90.91 230.7 90.91 229.8 90.11 229.8 90.11 231.5 91.41 231.5"/><polygon id="polygon77" class="cls-1" points="98.41 237.6 100.91 238.8 101.71 241.1 102.91 242 104.01 244.5 103.41 245.7 101.51 244 100.21 242.1 99.51 240.6 98.41 237.6"/><polygon id="polygon79" class="cls-1" points="140.41 289.5 141.31 291.7 140.11 292.4 139.41 291.4 137.81 290.9 137.61 289.4 136.31 287.4 138.31 287.7 140.41 289.5"/><path id="path81" class="cls-1" d="M227.91,137.7h-1.8l-.3-3.7,1-.7v-1.9h-5.8l-.2-1.9,.8-.5-1.3-.5-1,1.3-.3,1.5-1.7,.3v.8h-1.2v2.2l-4.7,3.9-9.3-.3c-.7,1.5-2.3-.2-2.3-.2-.3-1-2.7,0-2.7,0,0,1.9-3.2-.8-3.2-.8l-5.8-4.2c-3.3-3-8.3,.8-8.5,1.7,.2,2.4-3.8,.5-3.8,.5,0,0-3.3-1-3.8,.3s-2.7,1-2.7,1l-.3,.7-1.7,.3-.3,1-2,.3,5-.2c1.3-.2-.5,2.9-1.3,2.7l-2.3,.2-.8,.8h-2.2l-1,1.4-3.2-.2s-1.8,1.5-1.7,2c.2,.5-.3,2-.8,2s-1.5,1.5-1.2,2-1,2.2-1,2.2l-.3,1.7-1,.3v4.6l-2,1.4v2l-3,3.2,.3,2.7-2.5,2.7,.3,2.7-1.5,.5-.3,1.2-.7,3.5,1.7,.2c.8-.3,.7,2.2,0,2.5s-2.5,1-1.5,1.7-2.7,.5-2.7-.5-2-1.9-2.5-1.5c-.5,.3-1.3-1.5-1.3-1.5-1.8-1.9-7.5,.2-7.5,.2l-.8,2.7c-1.8,.3-3,3.4-3,3.4-1.5,.5-2.7,2.4-2.2,2.9s-.8,.7-.8,.7v3.7l-.8,1.2,.2,4c1,0,.8,1.9,.8,1.9-1.7,.2-1.3,2.4-1.3,2.4l-3.5,1.2-.7,1-4.3-.2-1.2,1.2-1.2-1.2h-8.3l-.3-.8-1.7-.3-.2-1.9-2.5,.2-.5,1-2.7,.2c.2,1.7-2.7,4.2-3,3.5s-2.2-2.5-1.3-2.9c.8-.3,3-.7,3-.7v-1.2l-6.2-.2-.7,1-2.5,.2v2.7l-1.2,.3c-.8,.5,.2,2.4,.2,2.4,1.2,1.2-.2,3-.2,3-1,1,.8,2.9,.8,2.9,1.3,.3-.8,1.3-.8,1.3,.3,1.7,1.3,2.2,1.3,2.2-1,1.7,.7,2.5,.7,2.5l.2,2.9,1.2,.7v1.9l.7,1.2h2.7l-.2-4.2c-2.3-2.7,2-3.4,2.2-2.4s2,1.5,2,1.5c.3,2.5,3.2,4,4,1.5s1.5-1,2,.2,3.7,4.1,3.7,4.1h2.5l.3,2.4c2.8-.2,3.7,.2,4.8,4,1.2,3.9,4.3,4.9,4.3,4.9l2.3-.2c0-2,2.3,.3,2.3,1.4,0,1,4.5,4.9,4.5,4.9l4.5,1,4.2,3.4,3.2-.3h1.3c.8-2.9,4.8,.2,5.2,1.2,.3,1,3,2.7,3.3,1.9s2.2-.3,2.5,2.2c.3,2.5,1.5,2,1.5,2l9.5-.2,3.3-2.9,8.5-.2c4.3-.2,1.7-6.1,.8-6.1-1.5-1.2,.5-6.1,.5-6.1l-12.1-11.3c-2.8,0-.3-4.1-.3-4.1,2.2-1.4-.5-3.5-.5-3.5,.3-2-1.2-4.4-1.2-4.4-3-2-2.2-5.9-2.2-5.9v-2.7c-2.5-2.4,1-2.7,1-2.7,1.2-2-.8-3.5-.8-3.5l-.2-2.2-2.7-.3-.3-7.9-6-8.6c-1.2-.3-.3-2.4-.3-2.4,1.5-.8-.3-2.9-.3-2.9l-.2-3.7,3.5-.3,.8-1.3h1.7l-.2-4.4c.8-2.2,2.8-1,2.8-1l2.3,.2,1.3-2.5,.3-2-1.8-.2c-2-1.2-1-5.6-1-5.6,3.2-4.7,6.8-2,6.8-2l2.3-.2c3.5,2.4,.3,6.7,.3,6.7-.7,1-.3,4.2-.3,4.2l.8,5.4-2.2,1.9c-1.8,1-1.8,3.4,.2,3.9,1.3,.2,.8,3.4-1.2,1.2-3,0,1.7,2.7,.3,2,3,1.5,2.3-1.3,2.3-1.3l4-3.2c1.5-1.2,4.2,2.5,4.2,3s6.6,.2,6.6,.2c1.8,1.2,2.5,4.2,2.5,4.2,1.8-2.4,5.7-.2,2.8,1.2,2.7,1.7,2.7,3.2,2.7,3.2,2.2-.7,2.2,1,2.2,1.5s.7-2.5,.7-2.5c-2.5-1.9,3.3-2.5,1.7,.8l-1,1.5,1.7,1.3,.2,3.9c3.7-.3,2.7-4.9,2.7-4.9l1.7-.3c0-1.5,1.2-.7,1.2-.7-1.2-5.7,2.7-6.7,2.7-6.7,2.2-.5,2.3-5.1,2.3-5.1-1.5-.7-.7-3,1-1s-1-4.1-1-4.1l-1.3-1.2-1.8-.2-.2-1.9h-3l-.5,2.4-1.1,.5-.3-.7-.5,1.9h-3l-.2-2,1.8-.5,.7-1,.5-2.7h2.2l2.8-.8c.2-2.9,1.7-2.2,1.7-2.2l1,.8,1.5,1.2,.2,1-1,.5-.2,1.4,.5,1.9h1.3c.5-2.7,4-2.7,5-1l1-2.4c-2.3-1.2,0-3,.6-2.2,.7,.8,2.2-2.2,2.2-2.2,0,0,1.2,1.5,0-.5s.8-3,.8-3c-.3-2,2.2-1.7,2.2-1.7l.2-2.7-2.3-.2c-.5,2.4-2.5,.3-1.5-.2s2-1.5,2-1.5v-1.7l1-.3,.2-1.7h2.5l2.2-1,.5-.8,2.3-.2,3.3-3-.3-1.3c-2,0,0-1.5,0-1.5l.2-2.8h0Z"/><path id="path83" class="cls-1" d="M160.91,171.1l-3-.3,.2,1.2h.8c1.3,2.4,.2,8.1,.2,8.1,0,0-2,.2-2.3-.8s-1.2,2.2-.5,2.7,3,0,3.2,1.9,1.5-1.2,1.5-1.2l-.1-11.6h0Z"/><polygon id="polygon85" class="cls-1" points="157.91 184.8 157.91 188.8 160.51 192.4 161.51 190 161.91 188.5 160.71 188 160.91 185.5 161.91 185.3 162.01 184.1 159.51 185.8 157.91 184.8"/><polygon id="polygon87" class="cls-1" points="162.21 196.1 162.21 194.4 161.01 194.6 160.91 195.9 162.21 196.1"/><polygon id="polygon89" class="cls-1" points="160.71 204.2 160.71 203 159.31 203.2 159.31 204.4 160.71 204.2"/><path id="path91" class="cls-1" d="M162.71,199c.4,0,.7-.3,.7-.7s-.3-.7-.7-.7-.7,.3-.7,.7,.3,.7,.7,.7Z"/><circle id="circle93" class="cls-1" cx="163.81" cy="201.8" r=".7"/><circle id="circle95" class="cls-1" cx="163.91" cy="182.5" r=".7"/><polygon id="polygon97" class="cls-1" points="217.21 159.6 218.21 159.6 218.41 160.7 217.71 161.3 217.41 162.2 216.11 162.5 213.11 165.4 212.91 166.7 212.11 167.9 211.11 170.4 207.61 170.6 206.91 173.6 207.41 176.2 210.41 177.4 210.71 175.7 211.71 175.2 211.91 173.5 212.61 172.3 213.61 171.1 213.91 169.8 215.61 168.8 217.61 168.4 218.41 167.4 218.71 165.4 218.91 163.9 219.61 162.8 221.61 162 221.61 158.8 220.61 158.8 220.41 157.6 218.61 157.4 218.21 158.3 217.41 158.3 217.21 159.6"/><path id="path99" class="cls-1" d="M225.01,169.1v-2.4l-.3-2.2-2.5-1.2-1.8,1.7-.3,2.4v1.5l-1.7,.3-.3,4.6-1.3,.5,.2,1.7-1.8,.5-1.8,.5-.3,2.2-1.3,.8-.7,2-.8,4.9s1.5,2.9,2.3,1.5c.8-1.3,2.2-1.5,2.2-1.5l.5-1.2,4.5,.2c.3-1.9,2.5-1.2,2.5-.3,0,.8,1.7,.2,1.7,.2l1.2-1.9h1.8l.2-2,.8-.5v-3c2.7-.8,2.3-3.4,2.3-3.4l.7-.8-.3-1.2c-1.3-.5-.7-1.7,.2-1.4,.8,.3-1.2-1.5-1.2-1.5-1,.8-1.8-1-1.8-1h-2.9Z"/><path id="path101" class="cls-1" d="M227.71,189.5c-.2,2-2.7,2.7-2.7,2.7l-1.8-.5-1-.8-.2-2.4,1.5-.2,.3,1,3.9,.2h0Z"/><path id="path103" class="cls-1" d="M236.71,178.7c.4,1.5,.3-2.4,1-2.2s.2-2.4,.2-2.4l-3,2.2c1.4,.2,1.6,1.7,1.8,2.4Z"/><path id="path105" class="cls-1" d="M245.51,169.9c.7,1.5,.5,3.7,3,5.4,.8,.6-.5,1.7-1.3,1.2s-3.2-4.2-3.2-4.2v-2.2c.5-1.3,1.2-.8,1.5-.2h0Z"/><polygon id="polygon107" class="cls-1" points="245.51 221.2 246.01 221.7 246.51 222.6 247.61 220.7 246.71 220.4 245.51 221.2"/><polygon id="polygon111" class="cls-1" points="265.41 216.1 266.71 215.2 266.21 214.4 264.81 215.2 265.41 216.1"/><path id="path113" class="cls-1" d="M313.51,251.3l1.5,.7,.2,2.9c2,2,8.5,.3,8.5-.2s-.3-6.2-.3-6.2l-.8-.8-.2-4.2c.7-2.2-3.2-5.4-3.5-4.7s-2.5,.2-2.5,.8c0,.7-1.3,4-.7,5.2,.7,1.2-.5,1.2-.7,2.4-.2,1-1.9,3-1.5,4.1h0Z"/><path id="path115" class="cls-1" d="M309.81,244.5c-.3,1.3-1.5,2-2.2,1.5s.8,.8,1.2,1.5c.3,.7,1.3,.7,1.7,0,.3-.7,.2-2.2,.5-2.9,.3-.6-1-.8-1.2-.1h0Z"/><rect id="rect117" class="cls-1" x="302.11" y="213.6" width="1.2" height="3.2"/><path id="path119" class="cls-1" d="M319.31,181.1c-.7-1,3.3-2.7,4-.7s0,1.7-.7,1.5c-.6-.2-2.3,.5-3.3-.8h0Z"/><polygon id="polygon123" class="cls-1" points="322.91 158.5 322.71 159.5 324.51 159.8 324.71 158.8 322.91 158.5"/><polygon id="polygon125" class="cls-1" points="318.21 161.4 318.31 161.7 319.31 161.3 318.91 160.5 318.71 159.9 318.21 160.2 317.01 160.9 315.91 160.2 315.41 161.1 316.71 161.9 317.01 162.1 317.21 161.9 318.21 161.4"/><path id="path127" class="cls-1" d="M324.51,120.3h-2.5s.8,.3-1.5-1.9c-2.3-2.2-3.8,.5-3.8,.5l-2.7,.3v2.7l-1.3,.5,.2,1.7,1.8-.2s0,2,.5,1.2c.5-.8,4.7,.2,4.3,2.2-.1,.8,4.2,3,3.7,5.7,2.2,.3,1.7,2.5,1.7,2.5l2.8,.3,.8-1.7,.8,.2v-1l-1.8-.5-.3-5.4-1.2-.8,.3-1.4-1.3-.5,.7-2.2-1.2-2.2h0Z"/><path id="path129" class="cls-1" d="M331.81,137.5l-1.3-.2-3,.5-1.7,3.2s.8,.5,1.5,1.7,1,8.1-1,9.3,.2,.5,.2,.5l-.3,3.7c.5,1.7,1.3,.8,1.8,0s1-1,1.7-1.9c.7-.8,1.7-2.4,1.8-3.5,.2-1.2,1-3,.5-3.5s.5-2.9,.5-2.9c0,0,.7-1.4,0-2.7-.7-1.4,.2-2.9,.7-3.5l-1.4-.7h0Z"/><polygon id="rect133" class="cls-1" points="333.81 144.4 333.91 143.1 334.91 143.2 334.81 144.6 333.81 144.4"/><polygon id="rect135" class="cls-1" points="333.71 149.1 332.81 148.6 333.31 147.6 334.21 148.1 333.71 149.1"/><path id="path137" class="cls-1" d="M332.31,135.7l-.7-1.5s0-1.3,.3-2-.7-1.3-1.2-1.5-.3-1.5-.5-2.2-1.3-1.2-1.3-1.2c0,0-.3-2.5-.3-3s-1.5-1.2-1-1.7,.8-1.2,1.3-1.5-.5-2.7,.3-2.2,.8,1.4,1.2,2c.3,.7-.2,3,.7,3.5,.8,.5-.2,2.2,1.2,2.2,1.3,0,.5,3.2,.5,3.2,0,0-.3,2.4,.5,2.5,.8,.2,.3,4.2,.3,4.2l-1.3-.8h0Z"/><path id="path139" class="cls-1" d="M321.51,108.4c.5,.7,1.5,1.2,1.5,1.9s-.3,1.2,.7,1.3c1,.2,1.7-.2,2,.7,.3,.8,.3,2.2,.2,2.9-.2,.7,.2,1.7,1,1.7s1,.2,1,.7,1-1.9,1-1.9c-.8-.7-1.5-2.2-1.5-2.2,0,0-.8-2.4-.8-2.7s-1.2-.7-1.7-.8c-.5-.2-1.3-1.7-1.3-1.7l-2.1,.1h0Z"/><path id="path141" class="cls-1" d="M323.11,106.8c-.5-.7-1-1.2-1.7-1.5s-1.2-.7-1.8-.7c-.7,0-1.3-.7-1-1.5s-.5-1.2-.5-1.9,.5-.7,1.3-.2,.7,.7,1.3,1.5c.7,.8,1,1.7,1.7,1.5s1.2,1.5,1.8,1c.7-.5,.5,1.2,.5,1.2l-1.6,.6h0Z"/><path id="path143" class="cls-1" d="M303.71,125.9c.9,.9-5,.7-5,0s.5-3,2-2.5,1.7-3,1.7-3c0,0-1.3,.2-.2-.5,1.2-.7,0-1.7-.5-2.2s-1-1.4-1-1.4h2.3c1-.7,1.3-3.9,1.3-3.9,2,.7,3-.7,3-.7,0,0,.3,1,1,1.9,.7,.8-1.7,1.2-.8,1.7,.8,.5,1.2,2,.8,2.5-.3,.5-2.2,.2-2.2-.5s-.7,.8,0,1.7c.7,.8-.8,2-1.2,2-.3,0-2.5,.3-.7,1.4,1.8,1,3.8,.5,3.8,.5,0,0,1.5-.2,2,.7,.5,.8-.2,1-1,1s-4.8-.3-4.8-.3c0,0-1,1.1-.5,1.6h0Z"/><path id="path145" class="cls-1" d="M293.01,127.4c.8-.2,2.8-.3,3.2,.2,.3,.5-1.2,1.2-1.2,1.2l-2,.3c-.6-.8-.8-1.5,0-1.7h0Z"/><path id="path147" class="cls-1" d="M314.51,113.3c1.3-.7,4.2-.7,4-1.7s1.7-1.3,1.7-1.3l.5,2,1.5,1,.2,1.9s.5-.3-1.3,.2-.7,1.3-.7,1.3l-4,.2-.5-1.7-1.4-1.9h0Z"/><path id="path149" class="cls-1" d="M308.01,104.1c1,0-.3,3.9,2.3,3.5,2.7-.3,.2,1.2,2.2,1.3,2,.2,1.5-1.5,2.2-2.7s.3-1.9-.8-2.2q-1.2-.3-1.5-1.7c-.3-1.3-1.7-1.7-1.7-1.7l-.5-2-2.2,1.3-2.2,2.9c0,2.4,1.2,1.3,2.2,1.3h0Z"/><polygon id="rect153" class="cls-1" points="312.41 118.4 312.91 117.4 313.81 117.8 313.31 118.9 312.41 118.4"/><rect id="rect155" class="cls-1" x="310.71" y="116.8" width="1" height="1.2"/><polygon id="rect157" class="cls-1" points="311.51 94.3 311.71 95.8 310.71 95.9 310.51 94.4 311.51 94.3"/><rect id="rect159" class="cls-1" x="308.71" y="110" width="1" height=".8"/><polygon id="rect161" class="cls-1" points="306.01 110 305.91 109 307.61 108.9 307.71 109.9 306.01 110"/><polygon id="rect163" class="cls-1" points="292.31 126.3 291.41 125.9 291.91 124.7 292.81 125.1 292.31 126.3"/><polygon id="rect165" class="cls-1" points="287.11 123.2 287.01 122.2 288.71 122 288.81 123 287.11 123.2"/><polygon id="polygon169" class="cls-1" points="258.31 122.9 254.61 123 254.71 124 258.31 123.9 258.31 122.9"/><polygon id="rect171" class="cls-1" points="252.21 124.3 251.81 122.8 252.81 122.6 253.11 124.1 252.21 124.3"/><polygon id="rect173" class="cls-1" points="251.51 125.4 251.21 124.4 251.71 124.3 252.01 125.2 251.51 125.4"/><path id="path175" class="cls-1" d="M259.81,122.5l-.2,1.2,1.8,.2s.8,.7,.8,1.2,1.2,1,1.8,1c.7,0,2.5-1.4,2.5-1.4,0,0,.8-2.4,.2-2.2-.7,.2-2,1.2-2.2,.2s-2.2-.5-2.2-.5l-2.5,.3h0Z"/><path id="path177" class="cls-1" d="M268.11,120.7c0,.5-.3,1.2,.7,1.4,1,.2,2.8-.7,3,.3s.2,1.7,1.5,2.2,2.2,.7,3.2,.7,3.2-.3,3.2-.3c0,0,2.4,.4,2.8,.8,1.8,1.9,3,2.4,3.5,1.5,.5-.8-.2-2.7-.3-3.4-.2-.7-2.5-3.9-3.3-3.2-.8,.7-1,0-2.5,.5s-4.7,.2-4.8-.5c-.2-.7-2.5-1-2.5-1.7s-1.7-1.5-1.5-.5-1.2,1.5-1.5,1.2c-.5-.4-1.5,1-1.5,1h0Z"/><path id="path179" class="cls-1" d="M306.31,99.1l1.2-3.7c-1.7-.3-1.3-2.2-1.3-2.2-.2-1.5-2.5-3.2-3.3-2.7s-.5-3.5-.5-3.5c0,0,1.5-1,2.2-.5s-5.7-8.4-7-7.6-4.3-.8-4.2-2.4c.2-1.5-6-6.6-6-6.6,0,0-2-1.3-2.3-.3s-1,1.7,0,2.2,.8-.8,2,.3c1.2,1.2,3.3,2.7,2.5,3.7s-1.8,1.4-1.8,1.4l1.2,1.4h1.8l.3,2.9s2,1,2.5,2.2,.5,1.9,0,2.5c-.5,.7-1.5,1.9-1.3,3,.2,1.2,1.5,1.7,1.5,1.7l1.3,.2,1,.5v2.2c1.3-.3,3.5,1.5,3.3,2.7s.3,.5,2,1.7,1.2,1.4,2.3,2.2c1.1,.7,2.1,.2,2.6-1.3h0Z"/><path id="path181" class="cls-1" d="M278.91,76.1c-.2-.7-.5-3,.5-2.9,1,.2,.3,0,1.5,.5s1.3-.8,1.3-.8h1.8l2.3,1.9-.3,1.5-1.7,.2c-.8-1.3-2.5-.8-2.2,.3,.3,1.2-.8,3.4-1.5,3.5-.7,.2-2.8,.2-2.7-.8,.3-1,1-3.4,1-3.4h0Z"/><path id="path183" class="cls-1" d="M277.61,71.6v-1.3s-.2-1.3-1-1.3-2.3-1-2-1.7-2.8-1.4-2.8-1.4c0,0-2.8-2.7-1.8-2.4,1,.3,.5-1.2,.5-1.2,0,0-2,.3-2.5,.2-.5-.2-.3-1.7-.3-1.7,0,0-2-.5-2,0s.7,.5,1,1.5c.3,1,.2,2.7,1.7,3s1.8,.7,2,1.4c.2,.7,2,.8,2,.8l1.3,.7,3.9,3.4h0Z"/><polygon id="polygon185" class="cls-1" points="259.61 54.4 259.11 53 257.81 52.7 257.81 54.2 259.61 54.4"/><path id="path187" class="cls-1" d="M259.11,47.3c-1.7-1.3,2.3,1,2.3,1,1.3,0,2.2,1,2.2,1.5s1.8,.3,1.8,.3l.2-1.2-1.3-1.7-1.2-.8s-1.8-.2-1.8-.7c0-.4-1.5,2.1-2.2,1.6h0Z"/><path id="path189" class="cls-1" d="M289.71,48.3c-.5,1.5-.7,3.5-1.5,3.5s-.5,2.2-.5,2.2c0,0,2.2,0,2.8,.2,.7,.2,.7,1.9,.7,1.9,2.5-.2,3.5,3.2,3.2,4.1-.3,.8,1,.8,1,.8,0,0,0,2.7-.3,3.4s2.2,1.2,2.8,2.2c.7,1-.3,4.4-.8,4.6s1.3,.7,1.2,1.5c-.2,.8,.5,0,.7,1.4,.2,1.3,.5,4.2,.5,4.2l2.3,.2c.3-2.2,4.6-2.3,5.3-2,2.8,1,5,5.4,5,6.4s-1.8,1.2-1.8,1.2l.3,4.9c2.8,.8,5.2,4.9,4.8,5.6-.3,.7,2,.5,2,.5,.3-3,3.2-2,3.3-1,.2,1,.7,3.2,.7,3.2l.8,1.5,1.2,1.2,1.8-.2,.5,1,2.2,.3s1.8,2,2,2.5,2.7,.3,3.3,.5c.7,.2,1.7,.7,1.8,1.5,.2,.8,1.2,2.2,1.2,2.2,0,0,2,.5,2.2,1.2s1,2.2,1,2.2l1.7,1.4,.2,1.5,1.8,.2,.5,2,3-.2,1.7-1.2c2.2-1.2,3.7-2.7,3.8-3.4,.2-.7,.5-3.2,2.2-2.7s.5-3.7,.5-3.7c0,0-2.3-1.7-2.2-2.5,.2-.8-2.3-2.5-2.2-3.2,.2-.7-2.2-2-2-2.7s-1.2-2.5-1.2-2.5l-2.5-2.4-.3-1.5-2-.2-4-4.9,.2-1.4-1.2-.2v-1.9l-1.2-.7-1.8-.2-3.7-4-.3-1.9h-1.8l.3-3.5c1.2-1.5,.5-4.4,.5-4.4,0,0-2.3,1.2-3.5,.7s.5-1.7,.5-1.7v-1.3l-1-1s-2.8,.3-3-.2-.7-2.7-.7-2.7l-.2-2.9-1.2-.5-.2-1-1.8,.2v-2l-1-.3-1-.5-.2-2-3.7-.2-1.2-1.7-1.3-2-4.2-.3-1-1-1.7-.3-1.2-.5-.5,.8-3.2,.2-.2,1c-1.4,.7-8,0-8.2,.5h0Z"/><path id="path191" class="cls-1" d="M307.21,43.9c-.3-1.3,3.3-2.5,4.2-1.5,.8,1,3.2,1.2,3.5,6.2,.1,1.8-3-1.9-3-1.9l-2.5-.8c-1.4-.3-2.1-1.1-2.2-2h0Z"/><polygon id="rect193" class="cls-1" points="258.41 46 257.51 45.6 258.21 44 259.11 44.5 258.41 46"/><path id="path195" class="cls-1" d="M249.81,29.4l-2.2-2.2v-1.9l-.7-.7-.7-2.4-2.2-.7-2.2,.8-2.3,1.5-2.5,.3-1.3,1.5,5.3,.5,1,1.7,3.8,.3,2.5,2.5c2.3,1,2.8,0,1.5-1.2h0Z"/><path id="path197" class="cls-1" d="M249.51,21.1c-.4-1.5-2.5,1.9-.3,2.5,2.2,.7,4.3,0,4.3,0l.5-1,8.3,.2c.7-.7,1-1.7,1-1.7,0,0,2-.7,2.8-.3,.8,.3,.2-2.4-.7-2-.8,.3-2.5,.2-2.5,.2h-3c-.2-1.2-2.8-.7-3,0-.1,.6-1.1,.8-1.1,.8l-3.8,.3c-.4,1-2.3,1.7-2.5,1h0Z"/><path id="path199" class="cls-1" d="M233.01,49.6c2.6,.8,3.5,.2,3.7-.5s.3-.8,1.3-1-.2-2.2-1.2-2-2-.3-2.2-1.2c-.2-.8-1.8-3-2-1.3s-1.2,1.7-1,2.9c.3,1.1,.8,2.9,1.4,3.1h0Z"/><path id="path201" class="cls-1" d="M213.91,51.5c-.1-.6,3.3-.7,3.8-.2s.2,1.4,1.7,1.4,.8,1,.7,1.5c-.2,.5-1.8,.3-2-.2s-2.7-.7-2.7-.7c0,0-1.3-1-1.5-1.8h0Z"/><polygon id="polygon205" class="cls-1" points="268.71 17.4 269.11 17.8 269.41 17.5 271.11 16.1 270.41 15.3 269.11 16.4 268.31 15.5 267.61 16.3 268.71 17.4"/><polygon id="polygon207" class="cls-1" points="261.31 13.5 261.51 13.3 263.41 12.1 262.81 11.3 261.31 12.3 260.21 11.6 259.71 12.5 261.01 13.3 261.31 13.5"/><polygon id="polygon209" class="cls-1" points="255.31 47.9 256.41 49.6 257.21 49 256.11 47.2 255.91 47 255.71 47 254.01 46.8 253.91 47.8 255.31 47.9"/><path id="path211" class="cls-1" d="M200.91,94l.2,1.9h2.5c1,0-.8-1.2-.8-1.2,0,0-2,.2-1.9-.7h0Z"/><polygon id="rect213" class="cls-1" points="204.11 94.1 204.71 93.3 205.71 94.1 205.11 94.9 204.11 94.1"/><polygon id="rect215" class="cls-1" points="173.81 62.5 174.51 61.8 175.51 62.8 174.81 63.5 173.81 62.5"/><polygon id="polygon219" class="cls-1" points="220.71 280.6 221.41 281.3 222.21 280.5 222.71 280 222.11 279.6 220.41 278.8 220.01 279.7 221.01 280.2 220.71 280.6"/><polygon id="polygon221" class="cls-1" points="207.61 268.4 208.81 269.2 209.41 268.4 208.71 267.9 209.21 267.5 208.61 266.7 207.61 267.6 207.11 268 207.61 268.4"/><path id="path223" class="cls-1" d="M332.91,235.5c-.2-.9-1.2-1.2-1.3-1.2l-.3,1h0c.1,0,.2,.1,.3,.2l.2,.9c-.1,.1-.2,.2-.2,.3l.7,.7c.5-.8,.7-1.3,.6-1.9h0Z"/><polygon id="polygon225" class="cls-1" points="334.41 232.3 332.81 232.2 332.91 230.7 334.51 230.9 334.41 232.3"/><path id="path227" class="cls-1" d="M372.91,219.2c.7-.4,1.6-1.3,1.5,.6-.1,1.9-.9,1.3-1.5,1.9-.6,.6-1-1.9,0-2.5h0Z"/><path id="path231" class="cls-1" d="M381.41,212v-.2c0-.3-.1-.7-.3-1.1l-.9,.5c.1,.2,.1,.5,.2,.7,0,.3,.1,.6,.3,.8,.2,.1,.4,.2,.7,.1l-.2-1c0,.1,.1,.1,.2,.2h0Z"/><path id="path233" class="cls-1" d="M379.21,212.8c.3,1,.6,2,.6,2.1l.9-.4s-.4-1-.6-2l-.9,.3h0Z"/><path id="path235" class="cls-1" d="M375.51,216.8l-1-.1c-.1,.8,.1,1.8,.9,1.9l.2-1h0s-.1-.4-.1-.8h0Z"/><path id="path237" class="cls-1" d="M371.21,196.7c-.1-.3-.2-.6-.5-.7-.7-.3-2,.2-2.6,.6l.6,.8c.6-.4,1.5-.6,1.6-.5v-.1l.9-.1h0Z"/><path id="path241" class="cls-1" d="M325.11,142.8c-.7,.7-2.2,1-2.2,1l-.5,1.9-.8,.7s.2,.5,0,1.7-1.7,1.9-1.7,1.9l-.7,.8s-4,.2-4.5,0c-1.5-.7-.5-2.7,.5-2.5s-.2-2.9-.2-2.9l1.3-.2s.2-3,.7-3-.2-1-.8-1.5c-.7-.5-1.5-2.2-2.2-2s-3.3,0-3.3,0l-.5,1-1.8,.3s.2,1.3-.2,1.7c-1,1.2-4.8,3.7-3.2-.5l.5-1v-1.5l-3-.2s-1.5-.5-1.5-1.2-.2-1.5-.2-1.5l-3.5-3.9-4.2-.5-.3-.8-2.5-.3c-3-1.5-5.7-.2-5.2,2.4,.5,2.5,1.3,3.5-.3,3.5-1.7,0-2-1.3-2-1.3,0,0-1.3-.5-1.3,.2s-.5,2,0,2.7-.7,1.7-1.2,1.2-1.8-2-1.5-2.5-2.3-3.7,.3-4.2c2.7-.5-.2-2,.8-2.4l1.3-.7h1.3l.8-.7-2.2-.3-1.3-.2-2.5-.2c-2.5,1.7-3,3.7-3,3.7-1.3,2.5-4.5-1-3.3-2.4s-3.7-.2-4.5,.5-3.3,.3-3.3,.3c-.5,1.5-2.8-.2-2.2-1.2,.7-1,.7-1.7,.7-1.7l-.8-.2-1,1.9c-2.3,0-3,1.3-2.5,2.2,.5,.8-.7-.2-1,1s.2,1.2,1.2,1.7c1,.5-.5,.5,.2,1.3,.7,.8,2.7,0,1.5,1.2s-3.5,.7-3.5,.7c-.2,1.5-3.3,1.2-3.7,.7-.3-.5-2.8-3.5-2.8-3.5l-3.2-.2c-.3-2.4,1.5-1.2,2.2-3,.7-1.9,1-4.9,1-4.9,0,0-2.7-.2-2.8,.7-.2,.8-1.8,1.4-1.8,1.4,0,0-1.3,.5-.8,1.2s-1,1-1,1c0,0,.3,1.1-.2,1.5-1.3,1.4-4.7,.2-5.2-.3l-2-.8-2-1.3-2.3,1-.7,.7h-2.5l-.2,2,4.5,.5,.3,4.2-1.8-.6h-1.2l-.5-1-1-.2v3.7l1,.8,.8,.8,1.7,.2,.3,2,4.2,.2,.5,.8,2.5,.2,4.8,4.9-.3,1.5-.8,.5c.3,1.2-2.2,.5-2.2,.5v1l1.2,.2,1.2,.7,1.7-2.9c1.8-1.2,2.7,.5,2.8,1.5,.2,1-.8,.8-.8,.8v2.4l1,.3c1.7,2-.7,3.2-.7,3.2l-.5,1.7c-.5,1.5-2.3,1.2-2.3,1.2l-.7,1-2,.5,3.9,.5c.4-1.4,1.4-1.7,1.9-1s.5,1.9,.5,1.9l1,.2-.2,1.9,1,.3v5.4l1.2,1.3c2-.8,2,.5,1,1.2s-.3,3.7-.3,3.7l-.8,.8v1.4l-1,.7v1.9c-1.7-.8-3.7-.5-4.2,0-1.5-1-4.7-.7-4.7,.2,1,1.3-1.2,1.7-1.2,1.7l-1.2,1.3c.8,1.7-.8,1.9-.8,1.9v3.2l-2,1.9,.2,4.4c0,1.2,2.5,1.3,3,.7,.5-.7,2.5,1.4,2.5,1.4h1.5l.3-3-1-.5v-4.9l1.7-1.9c2-.7,1.3,4.4,1.3,4.9,.2,1.9,1,1.7,1.8,1.3,1.7-.7,.3,1.9-1,1.7s-.5,1.7-.5,1.7l.8,.3-1.5,1.2-1.3,1.5-1.7-.5-2-.2-.7-1.2-1.2-.2-.2,2.4-.8,1-2,2c2.7,0-.3,1.9-1,1.9,1.5,.5-.2,2-4,.8v1.2l-1.3,.2,1.2,1.3,1.3,.2-.5,2.9c0,2.2-5.5,.7-6,.2l-.2,3-1,.2,.2,2-.2,2.9,1.8-.3v1.2l4.5,.2,6.5-6.9,3.8-.8c.3-1.7,2,.3,2,.3,1.7-.2,2,1,2,1l2.2,.3c1.8,.5,.7,.7,.8,1.4,.2,1,1,.7,1,.7l.3-2.2,1,.2-1-1.2-1.8-.8-2-.8c-1.3-1.9,.3-1.5,1.7-1.3h2.2s2.5,3.4,2.5,4.2,1.2,1,1.2,1l1.5-.2,.5,1.2h1.5l.5,1h3l.2-1.5-2.8-.5-.2-1.7-2-.5c-.7-2.9,.5-3.7,1.3-2.4l1,.2-.3-2.5,1.2-.3-.3-3.5-1-.3v-1.2l4.2,.2c-.3-2.2,.2-3.2,.2-3.2h1.2l.2,.8,5.1,.5,3.6-4.1c-.2-.3,.4-.5,0-.9-.5-.5-1.2,0-2-.5s0-3.4-.2-4c-.2-.7,2.8-1.7,2.3-.2s0,2.2,0,2.2c2.2-2,4,.2,3.8,.7s1.2,1,2,.5,1.8,1.5,1.5,2.5-3.3,.8-3.5-.2-.7-.7-1-.2-1.8,.8-2.7,.3c-.2-.1-.2-.2-.3-.3l-3.6,4.1h.2c2,1.2,1,2.7,.3,3s-1.8,.3-1.8,.3l-.3,.7-4.3,.3-.3,1.7c-2.2-.3-3,2-2.5,3.2s0,2.2,0,2.2l1.8,.8,2.3-.7c.3-1.7,1.8-2,3.2-3,1.3-1,3.5,1.9,2.8,3.2s-.7,1.9-.7,1.9l.2,1.5-1.7,.7-1.3,.7-.2,.8h-4.5l-.8,.8-2.2,.2-.7,1-1.5,.2s-2.5,1.2-1.5,2.5c1,1.4-4.2,1.2-5.3-.7-.3,1.7-2.2,.2-2.2,.2l-1.8-.5-.2-2.5c-.3-1.7-3.5-1.7-3.3-.5s-6,.5-6,.5l-2,1-1.8,1.1-.2,.8-3,.3-1.3,.7-.5-1h-1.3l-1.3,1.9c-3.5,.2-6.8,2.2-6.5,3s-1.3,1.7-1.3,1.7l-1.5,.5-1,1.5-2,.7-.3,3.5-1,.7v1.5l-1.2,.3v.8l-1.7,.2,1,2.5,1.3,.7c2.3,.3,1.3,3.2,1.3,3.2l1.3,.2,.7,1.9,1.3,2.7c.5,2,2,1.5,2.7,1.4,.7-.2,1.3,2,1.3,2l6.6,.2s-.3,.7,.8,1c1.2,.3,8.8,.7,9.1,.2-.3-1.5,4.2-1.9,6-.5,1.8,1.3,4.3,.5,4.3,.5l2.5,3,1.7,3.7,2.8,.8,2,.5,.7,2.9,1.5,.2,.5,1.9c1.8,1.3-.5,4.2-.5,4.2v3.7l1.3,.7-.2,1.4,2.2,2.2,2.5,.2,6.3,6.7,5,1.5,.8,2.7,1.3-.2,1-.8,4-.2,2-1.9,2.2-.3,18.5-15.7-1.7-1v-3.7c3-2.2,3.2-6.1,.3-6.4-2.1-.3-1.2-2.5,.8-2.9l1.2-.5v-1.5l3.8-3.5v-2.7l-8.3-6.9c-3.7-1.3,0-9.4,2.5-9.3,2.5,.2-.2-12.5-.2-12.5l-1.3-.7,.3-4.1h-1.8l-3,3.9-.8,2.7c-.3,3.5-10.6,2.9-11.1,2.4s-4-2-4-2c0,0-2.7-2.2-3.2-1.5s-2.8-.8-2.8-.3-2.2-1.2-2.2-1.2l-3.3-1.2,2.5-.5-.5-2,4.3,2.2c.5,.7,2.7,.5,2.7,.5l.7,.8s1.3-.2,2.2,.8c.8,1,5.2,.2,5.2,.2l1.2,1,1.8,.7,5.2,.2,.2-3.2,1-1-.2-2,1.2-1v-1.7l1-.3,.2-3.7,.8-.2v-8.1l-2.5-2.4c-.2,.8-2.8,.8-2.8,.8,0,0-.7,1.2-1.2,1.2s.7,1.5,.3,2.5c-.3,1-1.7,1-1.7,1l-2.5,.7-.7,.8h-2.7l-.3-2.2,3-.8,1.7-.8,.8-1.7c.2-1.7,2.2-1.5,2.2-1.5,0,0,3.8-3.2,4-4.7s1.5-5.7,3.8-5.7h4.3c1.7-.7,1.2-2.9,1.2-2.9l2.2-.3,.3,1.2s3,.3,3.3-.2,1-1.7,1.8-1.2,3.5-1.2,3.5-1.2c.2-1.2,4.3-.7,4.3-.7l.5-1.5s-2.8-3.9-3.3-3.9-3.2-2.4-3.5-1.5c-2.7-.7-2.5-4.4-2.5-4.4l-1-2.4c0-1.4-2.5-4.2-3-3.9-2.5-1.9-.7-4,0-4.2s2.3-2.5,2.3-2.5l.8-2.4,2.8-.8,.3-2.2-1.5-.2s1.7-3,2.5-3,6.3,0,6.8-.3,1.5-3,1.5-3.5,1.3-.7,1.8-.8c.5-.2,1.7-1.5,2-2.2,.9-1.7-.2-5.9-.9-5.2h0Z"/><path id="path245" class="cls-1" d="M233.01,203.6c.2-.2,.5,.8,1,.6,.5-.1,.7,.9,.2,.9s-.5,.6-.5,.9,0,.9-.4,1.3c-.4,.4-.7,.1-1.2-.1-.5-.3-.7-.3-1.4-.3-.6,0-.1,1-.1,1,0,0-2.6-.1-2.1-.5s1-.5,.6-.8,0-.5,0-1,1.2-.3,.9-.6c-.4-.4,0-1.8,.6-1l.4-.9c-.4-.4-.1-.5-.9-.8-.7-.3-.1-1.8-.1-1.8l.1-1c.2-1.3,2.7-1.4,2.9-.3,.1,1.1,0,1.9,0,1.9l.7,.3s-.1,.8-.7,.8,0,.4-.4,.8l.4,.6h0Z"/><path id="path247" class="cls-1" d="M224.81,204.9c.4-.8,1.2-4,2.2-3s1.6,0,1.6,0c0,0,.5,.5,.2,1.5-.2,1-.5,2-1.1,2.2-.6,.1-1.1,.5-1.9,.6-.6,.1-1-1.3-1-1.3h0Z"/></g></g></g></svg>