<?xml version="1.0" encoding="UTF-8"?><svg id="Layer_1" xmlns="http://www.w3.org/2000/svg" xmlns:xlink="http://www.w3.org/1999/xlink" viewBox="0 0 815.05 239.92"><defs><style>.cls-1{fill:url(#linear-gradient);}.cls-2{fill:#fff;}.cls-3{fill:url(#linear-gradient-8);}.cls-4{fill:url(#linear-gradient-9);}.cls-5{fill:url(#linear-gradient-3);}.cls-6{fill:url(#linear-gradient-4);}.cls-7{fill:url(#linear-gradient-2);}.cls-8{fill:url(#linear-gradient-6);}.cls-9{fill:url(#linear-gradient-7);}.cls-10{fill:url(#linear-gradient-5);}.cls-11{font-family:MinionPro-Regular, 'Minion Pro';font-size:80px;}.cls-12{fill:url(#linear-gradient-14);}.cls-13{fill:url(#linear-gradient-18);}.cls-14{fill:url(#linear-gradient-15);}.cls-15{fill:url(#linear-gradient-19);}.cls-16{fill:url(#linear-gradient-16);}.cls-17{fill:url(#linear-gradient-17);}.cls-18{fill:url(#linear-gradient-13);}.cls-19{fill:url(#linear-gradient-12);}.cls-20{fill:url(#linear-gradient-10);}.cls-21{fill:url(#linear-gradient-11);}</style><linearGradient id="linear-gradient" x1="215.88" y1="71.34" x2="280.15" y2="71.34" gradientTransform="translate(0 242.02) scale(1 -1)" gradientUnits="userSpaceOnUse"><stop offset="0" stop-color="#39784c"/><stop offset="1" stop-color="#244023"/></linearGradient><linearGradient id="linear-gradient-2" x1="255.34" y1="134.66" x2="289.24" y2="134.66" gradientTransform="translate(0 242.02) scale(1 -1)" gradientUnits="userSpaceOnUse"><stop offset="0" stop-color="#39784c"/><stop offset="1" stop-color="#244023"/></linearGradient><linearGradient id="linear-gradient-3" x1="286.11" y1="180.75" x2="257.23" y2="164.07" gradientTransform="translate(0 242.02) scale(1 -1)" gradientUnits="userSpaceOnUse"><stop offset="0" stop-color="#4d6bb3"/><stop offset="1" stop-color="#001823"/></linearGradient><linearGradient id="linear-gradient-4" x1="233.2" y1="198.79" x2="268.52" y2="198.79" gradientTransform="translate(0 242.02) scale(1 -1)" gradientUnits="userSpaceOnUse"><stop offset="0" stop-color="#39784c"/><stop offset="1" stop-color="#244023"/></linearGradient><linearGradient id="linear-gradient-5" x1="244.92" y1="224.98" x2="231.6" y2="217.29" gradientTransform="translate(0 242.02) scale(1 -1)" gradientUnits="userSpaceOnUse"><stop offset="0" stop-color="#4d6bb3"/><stop offset="1" stop-color="#001823"/></linearGradient><linearGradient id="linear-gradient-6" x1="71.87" y1="232.13" x2="28.62" y2="207.16" gradientTransform="translate(0 242.02) scale(1 -1)" gradientUnits="userSpaceOnUse"><stop offset="0" stop-color="#4d6bb3"/><stop offset="1" stop-color="#001823"/></linearGradient><linearGradient id="linear-gradient-7" x1="19.74" y1="203.28" x2="43.31" y2="189.68" gradientTransform="translate(0 242.02) scale(1 -1)" gradientUnits="userSpaceOnUse"><stop offset="0" stop-color="#39784c"/><stop offset="1" stop-color="#244023"/></linearGradient><linearGradient id="linear-gradient-8" x1="44.09" y1="185.29" x2="1.35" y2="160.62" gradientTransform="translate(0 242.02) scale(1 -1)" gradientUnits="userSpaceOnUse"><stop offset="0" stop-color="#4d6bb3"/><stop offset="1" stop-color="#001823"/></linearGradient><linearGradient id="linear-gradient-9" x1=".02" y1="132.74" x2="33.61" y2="132.74" gradientTransform="translate(0 242.02) scale(1 -1)" gradientUnits="userSpaceOnUse"><stop offset="0" stop-color="#39784c"/><stop offset="1" stop-color="#244023"/></linearGradient><linearGradient id="linear-gradient-10" x1="43.93" y1="106.86" x2="11.02" y2="87.86" gradientTransform="translate(0 242.02) scale(1 -1)" gradientUnits="userSpaceOnUse"><stop offset="0" stop-color="#4d6bb3"/><stop offset="1" stop-color="#001823"/></linearGradient><linearGradient id="linear-gradient-11" x1="9.41" y1="70.12" x2="74.22" y2="70.12" gradientTransform="translate(0 242.02) scale(1 -1)" gradientUnits="userSpaceOnUse"><stop offset="0" stop-color="#39784c"/><stop offset="1" stop-color="#244023"/></linearGradient><linearGradient id="linear-gradient-12" x1="97.9" y1="58.18" x2="44.63" y2="27.43" gradientTransform="translate(0 242.02) scale(1 -1)" gradientUnits="userSpaceOnUse"><stop offset="0" stop-color="#4d6bb3"/><stop offset="1" stop-color="#001823"/></linearGradient><linearGradient id="linear-gradient-13" x1="55.35" y1="18.55" x2="235.1" y2="18.55" gradientTransform="translate(0 242.02) scale(1 -1)" gradientUnits="userSpaceOnUse"><stop offset="0" stop-color="#39784c"/><stop offset="1" stop-color="#244023"/></linearGradient><linearGradient id="linear-gradient-14" x1="252.76" y1="62.46" x2="185.31" y2="23.52" gradientTransform="translate(0 242.02) scale(1 -1)" gradientUnits="userSpaceOnUse"><stop offset="0" stop-color="#4d6bb3"/><stop offset="1" stop-color="#001823"/></linearGradient><linearGradient id="linear-gradient-15" x1="292.68" y1="121.76" x2="231.86" y2="86.64" gradientTransform="translate(0 242.02) scale(1 -1)" gradientUnits="userSpaceOnUse"><stop offset="0" stop-color="#4d6bb3"/><stop offset="1" stop-color="#001823"/></linearGradient><linearGradient id="linear-gradient-16" x1="62.24" y1="18.39" x2="136.99" y2="-24.77" gradientTransform="translate(0 66.02) scale(1 -1)" gradientUnits="userSpaceOnUse"><stop offset="0" stop-color="#39784c"/><stop offset="1" stop-color="#244023"/></linearGradient><linearGradient id="linear-gradient-17" x1="232.49" y1="10.8" x2="68.06" y2="-84.14" gradientTransform="translate(0 66.02) scale(1 -1)" gradientUnits="userSpaceOnUse"><stop offset="0" stop-color="#4d6bb3"/><stop offset="1" stop-color="#001823"/></linearGradient><linearGradient id="linear-gradient-18" x1="87.36" y1="-44.9" x2="183.87" y2="-100.63" gradientTransform="translate(0 66.02) scale(1 -1)" gradientUnits="userSpaceOnUse"><stop offset="0" stop-color="#39784c"/><stop offset="1" stop-color="#244023"/></linearGradient><linearGradient id="linear-gradient-19" x1="172.98" y1="-80.54" x2="123.04" y2="-109.38" gradientTransform="translate(0 66.02) scale(1 -1)" gradientUnits="userSpaceOnUse"><stop offset="0" stop-color="#4d6bb3"/><stop offset="1" stop-color="#001823"/></linearGradient></defs><g id="Layer_1-2"><g id="Layer_7"><g><path class="cls-1" d="M242.7,194.07c-8.83,2.35-18.27,3.11-26.81,6.04,14.52-12.45,13.69-31.74,23.38-46.42,3.08-4.16,5.62-8.51,9.25-12.45-5.91,11.82-3.34,27.16-10.1,38.66-2.61,4.54-6.35,8.99-10.45,12.58,1.33-.06,2.54-1.21,3.72-2,10.99-10.99,25.38-14.04,37.27-22.97,4.77-3.81,9.15-8.77,11.21-14.17-2.29,18.2-20.4,35.3-37.46,40.73"/><path class="cls-7" d="M282.31,120.3c-5.4,7.66-11.88,14.77-16.87,22.56,.57-6.16,1.27-13.72-1.11-19.57-4.16-12.58-7.82-25.32-8.99-39.14l.16-5.27c3.11,14.11,16.97,23.8,16.11,39.59,.32,3.84-.86,7.08-1.59,10.45l.25,.25,.64-.7c2.07-7.75,3.08-15.89,6.29-23.13,4.54-10.42,10.2-20.94,7.88-33.49,6.86,14.84,4.77,34.63-2.76,48.45"/><path class="cls-5" d="M273.83,40.46c9.09,12.3,11.06,31.9,4.45,46-2.48,5.97-4.19,12.36-5.18,18.97-.44-1.14-.57-2.67-.98-3.94-3.59-13.79-16.68-23.64-22.05-36.66-1.68-4.26-3.15-8.67-3.97-13.28,5.72,10.61,19.89,16.11,23.73,27.8,1.59,2.95,1.49,6.67,2.48,9.85,.22,0,.41-.16,.41-.35-1.68-12.04-1.18-24.65,.44-36.57-.1-6.45-.73-12.71-4.32-17.7,2.35,1.3,3.37,3.88,4.99,5.88"/><path class="cls-6" d="M267.41,38.11c2.38,10.77-1.11,21.29,1.11,32.15l-.1,.1c-5.88-11.53-18.3-16.97-26.88-26.21-4.99-5.46-7.12-12.14-8.36-19.22,4.92,11.82,18.14,14.46,25.73,24.4,2.54,2.29,3.37,5.46,5.02,8.1l.25-.25c-4.38-9.34-5.85-19.82-8.9-29.8-1.52-4.32-4.54-8.55-8.61-11.28,10.01,2.07,18.65,12.49,20.71,22.02"/><path class="cls-10" d="M240.73,13.39c7.53,6.74,10.93,15.44,13.12,24.46l1.24,2.86c-10.93-7.85-20.81-18.4-27.77-29.55l-8.51-8.61c7.47,3.18,15.54,5.08,21.92,10.83"/><path class="cls-8" d="M68.47,3.99c-7.53,6.61-12.77,14.96-18.36,22.78-5.02,6.2-11.44,10.33-17.12,15.63,3.08-6.35,3.18-13.98,7.53-19.79,6.2-10.8,17.7-14.61,27.96-18.62"/><path class="cls-9" d="M27.23,27.02c3.65-4.54,8.32-7.72,13.53-9.05-10.17,6.99-9.5,19.48-12.71,29.9-1.02,3.84-2.8,7.37-3.69,11.34l.25,.19c1.68-4.48,4.67-8.67,8.36-12.3,7.21-6.67,17.89-10.83,21.41-20.68-.16,13.69-11.56,24.46-22.49,32.15-4.51,3.97-8.86,8.45-11.34,13.53-.25-3.46,.51-6.93,.25-10.61-1.18-11.95-2.03-25.61,6.42-34.47"/><path class="cls-3" d="M6.67,67.91c-.32-12.1,4.7-22.02,11.79-31.04,.22-.1,.35-.32,.64-.25-7.78,11.85-1.33,26.78-1.72,40.25l-1.02,13.79c.16,.1,.16,.51,.51,.35,.44-1.52,.57-3.18,.86-4.77,1.84-11.12,11.5-19.03,19.95-26.72,1.81-2,3.4-4.07,4.32-6.42-.7,5.53-2.41,11.12-4.73,16.27-6.54,12.84-18.68,23.35-20.9,38.03-1.08-14.07-10.64-24.59-9.69-39.49"/><path class="cls-4" d="M.76,85.13c.86-3.78,1.56-7.72,3.18-11.18-3.15,16.01,7.66,27.58,11.18,41.46,1.49,5.18,1.84,10.77,3.97,15.63,.19,.1,.35-.1,.48-.25-5.24-14.77,2.35-28.47,9.98-40,1.84-3.11,2.92-6.61,3.84-10.2,.83,6.67-.86,14.36-1.84,21.29-1.84,8.83-4.61,17.19-7.02,25.73-1.59,5.34-1.18,11.37-.35,17l-.76-.64c-5.59-10.33-16.68-18.36-19.95-29.64-2.73-8.99-4.54-19.41-2.7-29.2"/><path class="cls-20" d="M.26,116.42c1.24,17,19.48,25.96,27.96,40,2,2.86,3.75,6.07,6.42,8.45-.41-1.81-2.1-3.34-2.73-5.18-2.95-5.88-4.03-12.93-3.34-20.05,.83-8.67,4.45-16.71,3.05-25.83,7.43,16.04,5.18,36.06,9.34,53.44,1.08,3.81,3.27,7.18,4.73,10.83-15.28-10.42-36.09-20.3-42.86-39.4C-.03,132.12-.35,123.95,.26,116.42"/><path class="cls-21" d="M9.41,155.41c8.51,19.28,29.83,20.87,44.13,32.6,2.64,2.32,5.37,4.32,8.36,5.69l.16-.16c-3.27-2.99-7.08-6.35-9.37-10.2-8.36-11.63-5.43-27.96-11.69-40.48,5.69,6.83,10.87,13.92,14.33,21.64,5.12,12.61,7.08,26.88,18.9,36.44-12.8-4.23-27.83-3.02-39.14-10.93-12.36-7.59-23.38-20.46-25.67-34.6"/><path class="cls-19" d="M31.26,191.34c13.66,15.54,35.96,10.36,54.14,14.42,2.57,.35,4.92,1.37,7.66,.95-2.16-1.37-5.18-1.21-7.53-2.48-14.26-5.02-16.36-20.46-24.08-30.88,9.88,6.58,18.2,15.44,27.32,24.02,6.54,5.75,14.46,8.39,22.78,10.1-2,.73-4.61,.54-6.77,1.08-14.93,3.69-31.55,9.69-47.37,4.32-10.33-3.24-20.97-11.37-26.15-21.54"/><path class="cls-18" d="M216.61,227.56c-15.41,5.75-31.45-.25-43.46-9.37-4.86-3.08-9.15-7.53-15.44-7.15-2.29-.03-4.48,.06-6.42,.64,11.69,5.43,22.53,12.93,32.44,22.53-1.68,1.91-3.84,3.69-5.88,5.34-9.56-10.29-20.14-20.21-31.99-25.99-2.32,.32-4.51,1.68-6.61,2.83-9.66,6.1-19.19,13.95-26.34,23.54l-6.16-5.08c9.85-9.94,20.71-17.7,32.63-23.22-8.32-2.64-14.58,1.56-20.71,6-2.48,1.81-4.92,3.62-7.5,5.08-10.36,7.24-25.23,10.61-37.71,5.62-6.74-2.54-13.25-6.32-18.11-12.42,9.85,6.77,24.49,7.5,35.68,3.08,15-6.51,30.59-14.77,48.7-10.83,2.83,.06,5.56,2.86,8.23,.48,13.47-3.49,28.69-1.08,40.25,5.08l11.95,4.77c11.12,4.13,25.45,2.99,34.95-3.78-4.92,6.04-11.6,10.39-18.49,12.87"/><path class="cls-12" d="M233.1,211.64c-17.28,6.51-34.66-1.49-51.21-4.16l-3.18-.41v-.1c7.91-1.78,15.6-4.16,21.89-9.85,9.28-8.93,17.54-18.11,27.83-25.13-7.66,9.79-8.45,23.73-21.06,30.05-3.11,2.03-7.05,2.41-10.29,3.94,4.61,.1,8.8-1.52,13.34-2,16.93-2.67,36.28,.06,48.16-14.36-4.42,10.07-15.44,18.49-25.48,22.02"/><path class="cls-14" d="M264.49,163.03c-6.83,4.45-13.72,8.61-20.3,13.69v-.64c10.04-16.71,5.15-39.62,11.34-58.01l2.29-6.16c-1.27,11.44,3.69,21.13,3.34,32.63-.35,6.93-2.61,13.09-6.26,18.62h.64c4.92-6.45,8.77-13.34,14.52-19.48,8.93-8.61,18.01-17.44,19.19-29.39,2.99,19.98-8.23,37.46-24.75,48.74"/></g></g><g><g id="Layer_2"><path class="cls-16" d="M96.42,13.71C103.57,9.26,120,.4,142.65,.02c19.28-.38,34.03,5.53,41.46,9.15-13.44,1.87-34.31,6.67-56.11,20.11-11.95,7.37-21.13,15.47-27.89,22.49-7.05,7.72-19.98,24.11-26.24,48.8-7.47,29.64-.83,54.07,2.48,64.02-5.18-5.27-29.42-31.2-28.37-69.96,.6-22.27,9.25-38.79,14.26-46.92,3.72-5.94,9.15-13.34,16.87-20.68,6.16-5.81,12.23-10.13,17.31-13.31h0Z"/></g><g id="Layer_3"><path class="cls-17" d="M111.58,187.4c-5.02-2.1-10.74-4.86-16.77-8.64-7.59-4.73-13.72-9.75-18.43-14.2-4.03-8.2-10.13-23.41-10.36-43.3-.06-7.78,.73-14.8,1.97-20.81s2.8-11.12,4.26-15.06c1.91-5.27,4.8-11.79,9.18-18.71,4.13-6.54,8.48-11.69,12.3-15.57-5.02,1.18-10.07,2.41-15.09,3.59,6.77-8.61,20.36-23.54,42.48-34.18,27.13-13.03,51.94-12.33,63.13-11.34,7.5,3.34,32.76,15.63,47.5,45.08,2.57,5.21,17.82,36.95,4.99,73.83-7.02,20.21-19.35,33.04-26.12,39.17,2.8-3.37,21.19-26.18,15.47-56.07-3.18-16.71-12.36-27.8-17-32.72-4.51-4.16-17.79-15.31-38.51-18.01-19.92-2.57-35.07,4.19-40.63,7.02,1.56,.51,4.29,1.65,6.89,4.16,2.83,2.73,4.1,5.72,4.64,7.28-3.15-.92-15.95-4.26-28.72,2.67-6.32,3.4-10.23,8.01-12.33,10.99,2.57,1.3,5.18,2.57,7.75,3.88,1.05,30.31,2.22,60.65,3.4,90.96h0Z"/></g><g id="Layer_4"><path class="cls-13" d="M170.99,188.96c-6.42,2.32-17.22,5.27-30.79,4.77-12.61-.48-22.56-3.81-28.66-6.39-5.08-3.81-12.99-10.77-18.97-21.79-3.02-5.62-14.01-25.96-5.4-47.18,1.81-4.48,4.19-8.23,6.77-11.37,.29-.38,.6-.7,.89-1.08,3.37-3.91,6.93-6.8,9.75-8.8-3.27,.38-6.58,.7-9.88,1.08,1.78-3.05,4.61-7.12,9.05-10.93,2.26-1.91,4.48-3.4,6.42-4.54,6.26-1.14,15.98-2.13,27.51-.03,8.93,1.62,16.08,4.54,21.06,7.08,2.26,1.11,7.94,4.19,11.91,10.99,4.35,7.37,3.97,14.55,3.72,17,.41,.44,7.91,8.96,4.73,19.44-2.22,7.34-8.2,10.8-9.56,11.56,.67-2.35,.48-4.16,.29-5.27-1.59-8.58-13.31-13.38-13.31-13.38h0c-1.08-.54-2.1-1.08-3.15-1.56,0,0-1.75-.76-3.15-1.3-3.15-1.14-10.2-.22-12.74,.98-11.5,5.5-9.44,53.25,7.08,59.28,4.96,1.81,16.55,1.84,17.54,1.84,3.65,.06,6.67-.19,8.86-.41h0Z"/></g><g id="Layer_5"><polygon class="cls-2" points="162.6 107.69 168.13 118.36 170.58 114.42 162.6 107.69"/></g><g id="Layer_6"><path class="cls-15" d="M133.21,149.94c.64-1.84,3.37-9.05,10.67-12.61,8.2-4,18.78-1.87,26.27,5.5-.19-.64-.48-1.52-.92-2.54-3.15-7.02-9.53-10.39-11.53-11.37-9.63-4.83-19.38-2.48-23.61-.83-2.19,.86-9.69,3.91-14.49,12.07-.67,1.14-4.1,7.15-3.81,15.69,.29,8.71,4.35,14.77,6,17.03,2,2.92,5.56,7.24,11.25,10.74,6.64,4.1,12.77,4.96,18.14,5.72,4.61,.67,11.5,1.11,19.86-.32-13.09-2.22-21.73-7.47-26.27-10.77-6.64-4.83-8.77-8.58-9.53-9.98-3.97-7.56-2.73-15.19-2.03-18.33h0Z"/></g></g></g><text class="cls-11" transform="translate(323.12 137.89)"><tspan x="0" y="0">JHMUN 2023</tspan></text></svg>