<svg width="62" height="17" viewBox="0 0 62 17" fill="none" xmlns="http://www.w3.org/2000/svg">
<path d="M13.864 2.184H16.546C17.134 2.184 17.632 2.274 18.04 2.454C18.46 2.634 18.802 2.874 19.066 3.174C19.33 3.474 19.516 3.822 19.624 4.218C19.744 4.602 19.804 5.004 19.804 5.424V5.892C19.804 6.24 19.774 6.534 19.714 6.774C19.666 7.014 19.588 7.224 19.48 7.404C19.372 7.584 19.24 7.746 19.084 7.89C18.928 8.022 18.748 8.148 18.544 8.268C18.976 8.472 19.294 8.778 19.498 9.186C19.702 9.582 19.804 10.116 19.804 10.788V11.508C19.804 12.636 19.528 13.5 18.976 14.1C18.436 14.7 17.566 15 16.366 15H13.864V2.184ZM15.7 13.164H16.492C16.864 13.164 17.152 13.11 17.356 13.002C17.572 12.894 17.734 12.744 17.842 12.552C17.95 12.36 18.016 12.132 18.04 11.868C18.064 11.604 18.076 11.316 18.076 11.004C18.076 10.68 18.058 10.398 18.022 10.158C17.986 9.918 17.908 9.72 17.788 9.564C17.68 9.396 17.524 9.27 17.32 9.186C17.116 9.102 16.846 9.06 16.51 9.06H15.7V13.164ZM15.7 7.44H16.528C17.14 7.44 17.548 7.29 17.752 6.99C17.968 6.678 18.076 6.228 18.076 5.64C18.076 5.064 17.956 4.632 17.716 4.344C17.488 4.056 17.068 3.912 16.456 3.912H15.7V7.44ZM25.0251 5.874H24.9891L24.0891 10.518H25.9251L25.0251 5.874ZM24.2511 2.184H25.7811L28.6431 15H26.8071L26.2671 12.246H23.7651L23.2251 15H21.3891L24.2511 2.184ZM36.2792 12.138C36.2792 12.534 36.2012 12.912 36.0452 13.272C35.9012 13.632 35.6972 13.95 35.4332 14.226C35.1692 14.49 34.8572 14.706 34.4972 14.874C34.1492 15.03 33.7712 15.108 33.3632 15.108C33.0152 15.108 32.6612 15.06 32.3012 14.964C31.9412 14.868 31.6172 14.706 31.3292 14.478C31.0412 14.238 30.8012 13.926 30.6092 13.542C30.4292 13.158 30.3392 12.672 30.3392 12.084V5.028C30.3392 4.608 30.4112 4.218 30.5552 3.858C30.6992 3.498 30.9032 3.186 31.1672 2.922C31.4312 2.658 31.7432 2.454 32.1032 2.31C32.4752 2.154 32.8832 2.076 33.3272 2.076C33.7472 2.076 34.1372 2.154 34.4972 2.31C34.8572 2.454 35.1692 2.664 35.4332 2.94C35.6972 3.204 35.9012 3.528 36.0452 3.912C36.2012 4.284 36.2792 4.692 36.2792 5.136V5.856H34.4432V5.244C34.4432 4.884 34.3412 4.572 34.1372 4.308C33.9332 4.044 33.6572 3.912 33.3092 3.912C32.8532 3.912 32.5472 4.056 32.3912 4.344C32.2472 4.62 32.1752 4.974 32.1752 5.406V11.958C32.1752 12.33 32.2532 12.642 32.4092 12.894C32.5772 13.146 32.8712 13.272 33.2912 13.272C33.4112 13.272 33.5372 13.254 33.6692 13.218C33.8132 13.17 33.9392 13.098 34.0472 13.002C34.1672 12.906 34.2632 12.774 34.3352 12.606C34.4072 12.438 34.4432 12.228 34.4432 11.976V11.346H36.2792V12.138ZM38.6773 2.184H40.5133V8.034H40.5493L43.2313 2.184H45.0673L42.5653 7.314L45.5353 15H43.5913L41.5033 9.312L40.5133 11.166V15H38.6773V2.184Z" fill="white" fill-opacity="0.75"/>
<g clip-path="url(#clip0_191_24)">
<path d="M9.12439 4C9.36478 4 9.51969 4.07767 9.67995 4.23301C9.99512 4.53851 9.99512 5.00453 9.67995 5.31003L6.90217 8.00259L9.76007 10.6951C10.0752 11.0006 10.0752 11.4667 9.76007 11.7722C9.4449 12.0777 8.96413 12.0777 8.64896 11.7722L5.2355 8.5411C5.07525 8.38576 4.99512 8.2356 4.99512 8.00259C4.99512 7.76958 5.07525 7.61942 5.2355 7.46408L8.56884 4.23301C8.72909 4.07767 8.96948 4 9.12439 4Z" fill="white" fill-opacity="0.75"/>
<path d="M4.12927 4C4.36966 4 4.52457 4.07767 4.68483 4.23301C5 4.53851 5 5.00453 4.68483 5.31003L1.90705 7.99741L4.76496 10.69C5.08013 10.9955 5.08013 11.4615 4.76496 11.767C4.44979 12.0725 3.96902 12.0725 3.65385 11.767L0.240385 8.53592C0.0801282 8.38576 0 8.23042 0 8.00259C0 7.77476 0.0801282 7.61942 0.240385 7.46408L3.56838 4.23301C3.72863 4.07767 3.96902 4 4.12393 4H4.12927Z" fill="white" fill-opacity="0.75"/>
</g>
<defs>
<clipPath id="clip0_191_24">
<rect width="10" height="8" fill="white" transform="translate(0 4)"/>
</clipPath>
</defs>
</svg>
