<svg width="14" height="11" viewBox="0 0 14 11" fill="none" xmlns="http://www.w3.org/2000/svg">
<g clip-path="url(#clip0_191_33)">
<path d="M1.22634 11C0.889803 11 0.672922 10.8932 0.448563 10.6796C0.00732348 10.2595 0.00732348 9.61877 0.448563 9.19871L4.33745 5.49644L0.336384 1.79417C-0.104856 1.37411 -0.104856 0.733333 0.336384 0.313268C0.777623 -0.106797 1.4507 -0.106797 1.89194 0.313268L6.67079 4.75599C6.89514 4.96958 7.00732 5.17605 7.00732 5.49644C7.00732 5.81683 6.89514 6.0233 6.67079 6.23689L2.00412 10.6796C1.77976 10.8932 1.44322 11 1.22634 11Z" fill="white" fill-opacity="0.75"/>
<path d="M8.21902 11C7.88248 11 7.6656 10.8932 7.44124 10.6796C7 10.2595 7 9.61877 7.44124 9.19871L11.3301 5.50356L7.32906 1.80129C6.88782 1.38123 6.88782 0.740453 7.32906 0.320388C7.7703 -0.0996769 8.44338 -0.0996769 8.88461 0.320388L13.6635 4.76311C13.8878 4.96958 14 5.18317 14 5.49644C14 5.80971 13.8878 6.0233 13.6635 6.23689L9.00427 10.6796C8.77991 10.8932 8.44338 11 8.2265 11H8.21902Z" fill="white" fill-opacity="0.75"/>
</g>
<defs>
<clipPath id="clip0_191_33">
<rect width="14" height="11" fill="white" transform="translate(14 11) rotate(-180)"/>
</clipPath>
</defs>
</svg>
