<svg width="51" height="51" viewBox="0 0 51 51" fill="none" xmlns="http://www.w3.org/2000/svg">
<path d="M17.4436 25.7812C17.4436 21.1791 21.1757 17.4472 25.7806 17.4472C30.3856 17.4472 34.1196 21.1791 34.1196 25.7812C34.1196 30.3834 30.3856 34.1152 25.7806 34.1152C21.1757 34.1152 17.4436 30.3834 17.4436 25.7812ZM12.9357 25.7812C12.9357 32.8713 18.6864 38.6185 25.7806 38.6185C32.8749 38.6185 38.6255 32.8713 38.6255 25.7812C38.6255 18.6912 32.8749 12.944 25.7806 12.944C18.6864 12.944 12.9357 18.6912 12.9357 25.7812ZM36.1322 12.4351C36.132 13.0284 36.3078 13.6085 36.6375 14.102C36.9671 14.5954 37.4358 14.9801 37.9842 15.2074C38.5326 15.4347 39.1361 15.4944 39.7185 15.3788C40.3008 15.2633 40.8358 14.9778 41.2558 14.5584C41.6758 14.139 41.9619 13.6046 42.0779 13.0227C42.194 12.4408 42.1348 11.8376 41.9078 11.2893C41.6808 10.741 41.2963 10.2723 40.8027 9.94251C40.3092 9.61267 39.7289 9.43649 39.1352 9.43625H39.134C38.3382 9.43662 37.5751 9.75265 37.0123 10.3149C36.4494 10.8772 36.1329 11.6397 36.1322 12.4351ZM15.6746 46.1306C13.2357 46.0196 11.9101 45.6136 11.0292 45.2706C9.86128 44.8162 9.02798 44.275 8.15185 43.4007C7.27573 42.5262 6.7334 41.6942 6.28073 40.5271C5.93733 39.647 5.53108 38.3218 5.42022 35.8844C5.29894 33.2492 5.27473 32.4576 5.27473 25.7815C5.27473 19.1052 5.30094 18.3158 5.42022 15.6784C5.53128 13.241 5.94053 11.9184 6.28073 11.0358C6.7354 9.86865 7.27693 9.03585 8.15185 8.16025C9.02678 7.28465 9.85928 6.74265 11.0292 6.29025C11.9097 5.94705 13.2357 5.54105 15.6746 5.43025C18.3113 5.30905 19.1034 5.28485 25.7806 5.28485C32.4578 5.28485 33.2507 5.31105 35.8897 5.43025C38.3286 5.54125 39.6519 5.95025 40.5351 6.29025C41.703 6.74265 42.5363 7.28585 43.4124 8.16025C44.2885 9.03465 44.8288 9.86865 45.2835 11.0358C45.6269 11.9158 46.0332 13.241 46.144 15.6784C46.2653 18.3158 46.2895 19.1052 46.2895 25.7815C46.2895 32.4576 46.2653 33.2471 46.144 35.8844C46.033 38.3218 45.6247 39.6466 45.2835 40.5271C44.8288 41.6942 44.2873 42.5271 43.4124 43.4007C42.5375 44.2743 41.703 44.8162 40.5351 45.2706C39.6545 45.6138 38.3286 46.0198 35.8897 46.1306C33.2529 46.2519 32.4608 46.2761 25.7806 46.2761C19.1004 46.2761 18.3105 46.2519 15.6746 46.1306ZM15.4674 0.93265C12.8044 1.05385 10.9848 1.47585 9.3956 2.09385C7.74981 2.73205 6.35658 3.58825 4.96434 4.97745C3.57211 6.36665 2.7176 7.76125 2.07901 9.40605C1.46064 10.9952 1.03839 12.8128 0.917116 15.4742C0.793842 18.1399 0.765625 18.9921 0.765625 25.7812C0.765625 32.5704 0.793842 33.4226 0.917116 36.0882C1.03839 38.7498 1.46064 40.5672 2.07901 42.1564C2.7176 43.8003 3.57231 45.1964 4.96434 46.585C6.35638 47.9736 7.74981 48.8287 9.3956 49.4687C10.9878 50.0867 12.8044 50.5086 15.4674 50.6298C18.136 50.751 18.9874 50.7812 25.7806 50.7812C32.5739 50.7812 33.4266 50.753 36.0938 50.6298C38.757 50.5086 40.5755 50.0867 42.1657 49.4687C43.8104 48.8287 45.2047 47.9742 46.5969 46.585C47.9891 45.1958 48.8419 43.8003 49.4822 42.1564C50.1006 40.5672 50.5249 38.7496 50.6441 36.0882C50.7654 33.4207 50.7936 32.5704 50.7936 25.7812C50.7936 18.9921 50.7654 18.1399 50.6441 15.4742C50.5229 12.8126 50.1006 10.9942 49.4822 9.40605C48.8419 7.76225 47.9869 6.36885 46.5969 4.97745C45.2069 3.58605 43.8104 2.73205 42.1677 2.09385C40.5755 1.47585 38.7568 1.05185 36.0958 0.93265C33.4286 0.81145 32.5759 0.78125 25.7826 0.78125C18.9894 0.78125 18.136 0.80945 15.4674 0.93265Z" fill="url(#paint0_radial_1697_1810)"/>
<path d="M17.4436 25.7812C17.4436 21.1791 21.1757 17.4472 25.7806 17.4472C30.3856 17.4472 34.1196 21.1791 34.1196 25.7812C34.1196 30.3834 30.3856 34.1152 25.7806 34.1152C21.1757 34.1152 17.4436 30.3834 17.4436 25.7812ZM12.9357 25.7812C12.9357 32.8713 18.6864 38.6185 25.7806 38.6185C32.8749 38.6185 38.6255 32.8713 38.6255 25.7812C38.6255 18.6912 32.8749 12.944 25.7806 12.944C18.6864 12.944 12.9357 18.6912 12.9357 25.7812ZM36.1322 12.4351C36.132 13.0284 36.3078 13.6085 36.6375 14.102C36.9671 14.5954 37.4358 14.9801 37.9842 15.2074C38.5326 15.4347 39.1361 15.4944 39.7185 15.3788C40.3008 15.2633 40.8358 14.9778 41.2558 14.5584C41.6758 14.139 41.9619 13.6046 42.0779 13.0227C42.194 12.4408 42.1348 11.8376 41.9078 11.2893C41.6808 10.741 41.2963 10.2723 40.8027 9.94251C40.3092 9.61267 39.7289 9.43649 39.1352 9.43625H39.134C38.3382 9.43662 37.5751 9.75265 37.0123 10.3149C36.4494 10.8772 36.1329 11.6397 36.1322 12.4351ZM15.6746 46.1306C13.2357 46.0196 11.9101 45.6136 11.0292 45.2706C9.86128 44.8162 9.02798 44.275 8.15185 43.4007C7.27573 42.5262 6.7334 41.6942 6.28073 40.5271C5.93733 39.647 5.53108 38.3218 5.42022 35.8844C5.29894 33.2492 5.27473 32.4576 5.27473 25.7815C5.27473 19.1052 5.30094 18.3158 5.42022 15.6784C5.53128 13.241 5.94053 11.9184 6.28073 11.0358C6.7354 9.86865 7.27693 9.03585 8.15185 8.16025C9.02678 7.28465 9.85928 6.74265 11.0292 6.29025C11.9097 5.94705 13.2357 5.54105 15.6746 5.43025C18.3113 5.30905 19.1034 5.28485 25.7806 5.28485C32.4578 5.28485 33.2507 5.31105 35.8897 5.43025C38.3286 5.54125 39.6519 5.95025 40.5351 6.29025C41.703 6.74265 42.5363 7.28585 43.4124 8.16025C44.2885 9.03465 44.8288 9.86865 45.2835 11.0358C45.6269 11.9158 46.0332 13.241 46.144 15.6784C46.2653 18.3158 46.2895 19.1052 46.2895 25.7815C46.2895 32.4576 46.2653 33.2471 46.144 35.8844C46.033 38.3218 45.6247 39.6466 45.2835 40.5271C44.8288 41.6942 44.2873 42.5271 43.4124 43.4007C42.5375 44.2743 41.703 44.8162 40.5351 45.2706C39.6545 45.6138 38.3286 46.0198 35.8897 46.1306C33.2529 46.2519 32.4608 46.2761 25.7806 46.2761C19.1004 46.2761 18.3105 46.2519 15.6746 46.1306ZM15.4674 0.93265C12.8044 1.05385 10.9848 1.47585 9.3956 2.09385C7.74981 2.73205 6.35658 3.58825 4.96434 4.97745C3.57211 6.36665 2.7176 7.76125 2.07901 9.40605C1.46064 10.9952 1.03839 12.8128 0.917116 15.4742C0.793842 18.1399 0.765625 18.9921 0.765625 25.7812C0.765625 32.5704 0.793842 33.4226 0.917116 36.0882C1.03839 38.7498 1.46064 40.5672 2.07901 42.1564C2.7176 43.8003 3.57231 45.1964 4.96434 46.585C6.35638 47.9736 7.74981 48.8287 9.3956 49.4687C10.9878 50.0867 12.8044 50.5086 15.4674 50.6298C18.136 50.751 18.9874 50.7812 25.7806 50.7812C32.5739 50.7812 33.4266 50.753 36.0938 50.6298C38.757 50.5086 40.5755 50.0867 42.1657 49.4687C43.8104 48.8287 45.2047 47.9742 46.5969 46.585C47.9891 45.1958 48.8419 43.8003 49.4822 42.1564C50.1006 40.5672 50.5249 38.7496 50.6441 36.0882C50.7654 33.4207 50.7936 32.5704 50.7936 25.7812C50.7936 18.9921 50.7654 18.1399 50.6441 15.4742C50.5229 12.8126 50.1006 10.9942 49.4822 9.40605C48.8419 7.76225 47.9869 6.36885 46.5969 4.97745C45.2069 3.58605 43.8104 2.73205 42.1677 2.09385C40.5755 1.47585 38.7568 1.05185 36.0958 0.93265C33.4286 0.81145 32.5759 0.78125 25.7826 0.78125C18.9894 0.78125 18.136 0.80945 15.4674 0.93265Z" fill="url(#paint1_radial_1697_1810)"/>
<defs>
<radialGradient id="paint0_radial_1697_1810" cx="0" cy="0" r="1" gradientUnits="userSpaceOnUse" gradientTransform="translate(7.41241 51.0175) scale(65.31 65.2708)">
<stop offset="0.09" stop-color="#FA8F21"/>
<stop offset="0.78" stop-color="#D82D7E"/>
</radialGradient>
<radialGradient id="paint1_radial_1697_1810" cx="0" cy="0" r="1" gradientUnits="userSpaceOnUse" gradientTransform="translate(31.1066 53.2574) scale(51.4733 51.4424)">
<stop offset="0.64" stop-color="#8C3AAA" stop-opacity="0"/>
<stop offset="1" stop-color="#8C3AAA"/>
</radialGradient>
</defs>
</svg>
