<svg width="150" height="55" viewBox="0 0 150 55" fill="none" xmlns="http://www.w3.org/2000/svg">
<rect width="150" height="55" fill="white"/>
<path d="M34.6553 35V20.76H36.6953V32.96H40.7353V35H34.6553ZM42.0577 35V20.76H48.1377V22.68H44.0977V26.86H47.6177V28.78H44.0977V32.96H48.1377V35H42.0577ZM53.58 30.02L52.58 24.86H52.54L51.54 30.02H53.58ZM48.54 35L51.72 20.76H53.42L56.6 35H54.56L53.96 31.94H51.18L50.58 35H48.54ZM59.6445 22.68V27.12H60.8045C61.1645 27.12 61.4512 27.0733 61.6645 26.98C61.8779 26.8733 62.0445 26.7267 62.1645 26.54C62.2712 26.3533 62.3445 26.1267 62.3845 25.86C62.4245 25.58 62.4445 25.26 62.4445 24.9C62.4445 24.54 62.4245 24.2267 62.3845 23.96C62.3445 23.68 62.2645 23.44 62.1445 23.24C61.8912 22.8667 61.4112 22.68 60.7045 22.68H59.6445ZM57.6045 35V20.76H60.8845C63.2845 20.76 64.4845 22.1533 64.4845 24.94C64.4845 25.78 64.3512 26.4933 64.0845 27.08C63.8312 27.6667 63.3779 28.14 62.7245 28.5L64.9245 35H62.7645L60.8645 28.92H59.6445V35H57.6045ZM66.0402 35V20.76H68.0002L71.0802 29.34H71.1202V20.76H73.1602V35H71.2402L68.1202 26.44H68.0802V35H66.0402ZM78.7178 35V20.76H80.6778L83.2978 28.3H83.3378L85.9378 20.76H87.9178V35H85.8778V26.34H85.8378L83.8178 32.46H82.7978L80.7978 26.34H80.7578V35H78.7178ZM89.7111 24.12C89.7111 23.5467 89.8111 23.04 90.0111 22.6C90.2111 22.16 90.4778 21.7933 90.8111 21.5C91.1311 21.22 91.4911 21.0067 91.8911 20.86C92.3044 20.7133 92.7178 20.64 93.1311 20.64C93.5444 20.64 93.9511 20.7133 94.3511 20.86C94.7644 21.0067 95.1378 21.22 95.4711 21.5C95.7911 21.7933 96.0511 22.16 96.2511 22.6C96.4511 23.04 96.5511 23.5467 96.5511 24.12V31.64C96.5511 32.24 96.4511 32.7533 96.2511 33.18C96.0511 33.6067 95.7911 33.96 95.4711 34.24C95.1378 34.5333 94.7644 34.7533 94.3511 34.9C93.9511 35.0467 93.5444 35.12 93.1311 35.12C92.7178 35.12 92.3044 35.0467 91.8911 34.9C91.4911 34.7533 91.1311 34.5333 90.8111 34.24C90.4778 33.96 90.2111 33.6067 90.0111 33.18C89.8111 32.7533 89.7111 32.24 89.7111 31.64V24.12ZM91.7511 31.64C91.7511 32.1333 91.8844 32.5 92.1511 32.74C92.4311 32.9667 92.7578 33.08 93.1311 33.08C93.5044 33.08 93.8244 32.9667 94.0911 32.74C94.3711 32.5 94.5111 32.1333 94.5111 31.64V24.12C94.5111 23.6267 94.3711 23.2667 94.0911 23.04C93.8244 22.8 93.5044 22.68 93.1311 22.68C92.7578 22.68 92.4311 22.8 92.1511 23.04C91.8844 23.2667 91.7511 23.6267 91.7511 24.12V31.64ZM100.387 22.68V27.12H101.547C101.907 27.12 102.193 27.0733 102.407 26.98C102.62 26.8733 102.787 26.7267 102.907 26.54C103.013 26.3533 103.087 26.1267 103.127 25.86C103.167 25.58 103.187 25.26 103.187 24.9C103.187 24.54 103.167 24.2267 103.127 23.96C103.087 23.68 103.007 23.44 102.887 23.24C102.633 22.8667 102.153 22.68 101.447 22.68H100.387ZM98.3467 35V20.76H101.627C104.027 20.76 105.227 22.1533 105.227 24.94C105.227 25.78 105.093 26.4933 104.827 27.08C104.573 27.6667 104.12 28.14 103.467 28.5L105.667 35H103.507L101.607 28.92H100.387V35H98.3467ZM106.862 35V20.76H112.942V22.68H108.902V26.86H112.422V28.78H108.902V32.96H112.942V35H106.862Z" fill="black"/>
</svg>
