<?xml version="1.0" encoding="utf-8"?>
<!-- Generator: Adobe Illustrator 26.3.1, SVG Export Plug-In . SVG Version: 6.00 Build 0)  -->
<svg version="1.1" id="Layer_1" xmlns="http://www.w3.org/2000/svg" xmlns:xlink="http://www.w3.org/1999/xlink" x="0px" y="0px"
	 viewBox="0 0 911.8 821.9" style="enable-background:new 0 0 911.8 821.9;" xml:space="preserve">
<style type="text/css">
	.st0{fill:url(#SVGID_1_);}
	.st1{fill:url(#SVGID_00000078027196214883790680000008617679952654709901_);}
	.st2{fill:url(#SVGID_00000098927964608544148680000014890585524975930005_);}
	.st3{fill:url(#SVGID_00000071528066165457675290000015701287557246101895_);}
	.st4{fill:url(#SVGID_00000041265249317877901640000010983322876837201297_);}
	.st5{fill:url(#SVGID_00000028300882037185614230000018089312683662386839_);}
	.st6{fill:url(#SVGID_00000023246340253013638730000005867284144930911383_);}
	.st7{fill:url(#SVGID_00000039114064436792994110000004550976755099553449_);}
	.st8{fill:url(#SVGID_00000112622537079762553700000007377688764547614858_);}
	.st9{fill:url(#SVGID_00000178181396179245801520000004511211229126431372_);}
	.st10{fill:url(#SVGID_00000009555461486448718870000012601160212079588270_);}
	.st11{fill:url(#SVGID_00000127765113101157770770000015065817187550270646_);}
	.st12{fill:url(#SVGID_00000103228500459927267920000011092229259215252625_);}
	.st13{fill:url(#SVGID_00000103958945423860625340000012426013126635289518_);}
	.st14{fill:url(#SVGID_00000182489110349749341180000016542098634707369910_);}
	.st15{fill:url(#SVGID_00000049215913022674954750000016845595762043755428_);}
	.st16{fill:url(#SVGID_00000065045087611516433620000005705882099697003397_);}
	.st17{fill:url(#SVGID_00000019670353468698787720000005891179849814538157_);}
	.st18{fill:#FFFFFF;}
	.st19{fill:url(#SVGID_00000047053086199247892920000006242920198372688315_);}
</style>
<g id="Layer_2_00000176008567007115466180000001825439623623113374_">
</g>
<g>
	
		<linearGradient id="SVGID_1_" gradientUnits="userSpaceOnUse" x1="679.5" y1="252.85" x2="881.7999" y2="252.85" gradientTransform="matrix(1 0 0 -1 0 824)">
		<stop  offset="0" style="stop-color:#39784C"/>
		<stop  offset="1" style="stop-color:#244023"/>
	</linearGradient>
	<path class="st0" d="M763.9,644.8c-27.8,7.4-57.5,9.8-84.4,19c45.7-39.2,43.1-99.9,73.6-146.1c9.7-13.1,17.7-26.8,29.1-39.2
		c-18.6,37.2-10.5,85.5-31.8,121.7c-8.2,14.3-20,28.3-32.9,39.6c4.2-0.2,8-3.8,11.7-6.3c34.6-34.6,79.9-44.2,117.3-72.3
		c15-12,28.8-27.6,35.3-44.6C874.6,573.9,817.6,627.7,763.9,644.8"/>
	
		<linearGradient id="SVGID_00000021835242852113255730000010158542070463575445_" gradientUnits="userSpaceOnUse" x1="803.7" y1="452.15" x2="910.4155" y2="452.15" gradientTransform="matrix(1 0 0 -1 0 824)">
		<stop  offset="0" style="stop-color:#39784C"/>
		<stop  offset="1" style="stop-color:#244023"/>
	</linearGradient>
	<path style="fill:url(#SVGID_00000021835242852113255730000010158542070463575445_);" d="M888.6,412.6c-17,24.1-37.4,46.5-53.1,71
		c1.8-19.4,4-43.2-3.5-61.6c-13.1-39.6-24.6-79.7-28.3-123.2l0.5-16.6c9.8,44.4,53.4,74.9,50.7,124.6c1,12.1-2.7,22.3-5,32.9
		l0.8,0.8l2-2.2c6.5-24.4,9.7-50,19.8-72.8c14.3-32.8,32.1-65.9,24.8-105.4C918.9,306.8,912.3,369.1,888.6,412.6"/>
	
		<linearGradient id="SVGID_00000131339095852205060540000004123874864708763807_" gradientUnits="userSpaceOnUse" x1="900.5473" y1="597.2095" x2="809.6437" y2="544.7256" gradientTransform="matrix(1 0 0 -1 0 824)">
		<stop  offset="0" style="stop-color:#4D6BB3"/>
		<stop  offset="1" style="stop-color:#001823"/>
	</linearGradient>
	<path style="fill:url(#SVGID_00000131339095852205060540000004123874864708763807_);" d="M861.9,161.3
		c28.6,38.7,34.8,100.4,14,144.8c-7.8,18.8-13.2,38.9-16.3,59.7c-1.4-3.6-1.8-8.4-3.1-12.4C845.2,310,804,279,787.1,238
		c-5.3-13.4-9.9-27.3-12.5-41.8c18,33.4,62.6,50.7,74.7,87.5c5,9.3,4.7,21,7.8,31c0.7,0,1.3-0.5,1.3-1.1
		c-5.3-37.9-3.7-77.6,1.4-115.1c-0.3-20.3-2.3-40-13.6-55.7C853.6,146.9,856.8,155,861.9,161.3"/>
	
		<linearGradient id="SVGID_00000085930795589078776060000009513523869594561410_" gradientUnits="userSpaceOnUse" x1="734.0001" y1="654" x2="845.2" y2="654" gradientTransform="matrix(1 0 0 -1 0 824)">
		<stop  offset="0" style="stop-color:#39784C"/>
		<stop  offset="1" style="stop-color:#244023"/>
	</linearGradient>
	<path style="fill:url(#SVGID_00000085930795589078776060000009513523869594561410_);" d="M841.7,153.9c7.5,33.9-3.5,67,3.5,101.2
		l-0.3,0.3c-18.5-36.3-57.6-53.4-84.6-82.5c-15.7-17.2-22.4-38.2-26.3-60.5c15.5,37.2,57.1,45.5,81,76.8c8,7.2,10.6,17.2,15.8,25.5
		l0.8-0.8c-13.8-29.4-18.4-62.4-28-93.8c-4.8-13.6-14.3-26.9-27.1-35.5C808,91.1,835.2,123.9,841.7,153.9"/>
	
		<linearGradient id="SVGID_00000088817491845510762390000001198715058864315555_" gradientUnits="userSpaceOnUse" x1="770.8938" y1="736.4381" x2="728.9778" y2="712.2376" gradientTransform="matrix(1 0 0 -1 0 824)">
		<stop  offset="0" style="stop-color:#4D6BB3"/>
		<stop  offset="1" style="stop-color:#001823"/>
	</linearGradient>
	<path style="fill:url(#SVGID_00000088817491845510762390000001198715058864315555_);" d="M757.7,76.1c23.7,21.2,34.4,48.6,41.3,77
		l3.9,9c-34.4-24.7-65.5-57.9-87.4-93L688.7,42C712.2,52,737.6,58,757.7,76.1"/>
	
		<linearGradient id="SVGID_00000175309518091534460270000007947755088265104291_" gradientUnits="userSpaceOnUse" x1="226.2182" y1="758.9357" x2="90.0922" y2="680.3423" gradientTransform="matrix(1 0 0 -1 0 824)">
		<stop  offset="0" style="stop-color:#4D6BB3"/>
		<stop  offset="1" style="stop-color:#001823"/>
	</linearGradient>
	<path style="fill:url(#SVGID_00000175309518091534460270000007947755088265104291_);" d="M215.5,46.5
		c-23.7,20.8-40.2,47.1-57.8,71.7c-15.8,19.5-36,32.5-53.9,49.2c9.7-20,10-44,23.7-62.3C147,71.1,183.2,59.1,215.5,46.5"/>
	
		<linearGradient id="SVGID_00000116192953472245727000000008762366312801854908_" gradientUnits="userSpaceOnUse" x1="62.1302" y1="668.1429" x2="136.3122" y2="625.3149" gradientTransform="matrix(1 0 0 -1 0 824)">
		<stop  offset="0" style="stop-color:#39784C"/>
		<stop  offset="1" style="stop-color:#244023"/>
	</linearGradient>
	<path style="fill:url(#SVGID_00000116192953472245727000000008762366312801854908_);" d="M85.7,119c11.5-14.3,26.2-24.3,42.6-28.5
		c-32,22-29.9,61.3-40,94.1c-3.2,12.1-8.8,23.2-11.6,35.7l0.8,0.6c5.3-14.1,14.7-27.3,26.3-38.7c22.7-21,56.3-34.1,67.4-65.1
		c-0.5,43.1-36.4,77-70.8,101.2c-14.2,12.5-27.9,26.6-35.7,42.6c-0.8-10.9,1.6-21.8,0.8-33.4C61.8,189.9,59.1,146.9,85.7,119"/>
	
		<linearGradient id="SVGID_00000092438537653351959100000014347588412200244113_" gradientUnits="userSpaceOnUse" x1="138.7753" y1="611.5114" x2="4.2483" y2="533.8412" gradientTransform="matrix(1 0 0 -1 0 824)">
		<stop  offset="0" style="stop-color:#4D6BB3"/>
		<stop  offset="1" style="stop-color:#001823"/>
	</linearGradient>
	<path style="fill:url(#SVGID_00000092438537653351959100000014347588412200244113_);" d="M21,247.7c-1-38.1,14.8-69.3,37.1-97.7
		c0.7-0.3,1.1-1,2-0.8c-24.5,37.3-4.2,84.3-5.4,126.7l-3.2,43.4c0.5,0.3,0.5,1.6,1.6,1.1c1.4-4.8,1.8-10,2.7-15
		c5.8-35,36.2-59.9,62.8-84.1c5.7-6.3,10.7-12.8,13.6-20.2c-2.2,17.4-7.6,35-14.9,51.2C96.7,292.7,58.5,325.8,51.5,372
		C48.1,327.7,18,294.6,21,247.7"/>
	
		<linearGradient id="SVGID_00000147934875877981986490000013890516581182222771_" gradientUnits="userSpaceOnUse" x1="4.391597e-02" y1="446.1" x2="105.7959" y2="446.1" gradientTransform="matrix(1 0 0 -1 0 824)">
		<stop  offset="0" style="stop-color:#39784C"/>
		<stop  offset="1" style="stop-color:#244023"/>
	</linearGradient>
	<path style="fill:url(#SVGID_00000147934875877981986490000013890516581182222771_);" d="M2.4,301.9c2.7-11.9,4.9-24.3,10-35.2
		c-9.9,50.4,24.1,86.8,35.2,130.5c4.7,16.3,5.8,33.9,12.5,49.2c0.6,0.3,1.1-0.3,1.5-0.8C45.1,399.1,69,356,93,319.7
		c5.8-9.8,9.2-20.8,12.1-32.1c2.6,21-2.7,45.2-5.8,67c-5.8,27.8-14.5,54.1-22.1,81c-5,16.8-3.7,35.8-1.1,53.5l-2.4-2
		c-17.6-32.5-52.5-57.8-62.8-93.3C2.3,365.5-3.4,332.7,2.4,301.9"/>
	
		<linearGradient id="SVGID_00000111192568027625036610000018208629374326818466_" gradientUnits="userSpaceOnUse" x1="138.2747" y1="364.641" x2="34.674" y2="304.8264" gradientTransform="matrix(1 0 0 -1 0 824)">
		<stop  offset="0" style="stop-color:#4D6BB3"/>
		<stop  offset="1" style="stop-color:#001823"/>
	</linearGradient>
	<path style="fill:url(#SVGID_00000111192568027625036610000018208629374326818466_);" d="M0.8,400.4c3.9,53.5,61.3,81.7,88,125.9
		c6.3,9,11.8,19.1,20.2,26.6c-1.3-5.7-6.6-10.5-8.6-16.3c-9.3-18.5-12.7-40.7-10.5-63.1c2.6-27.3,14-52.6,9.6-81.3
		c23.4,50.5,16.3,113.5,29.4,168.2c3.4,12,10.3,22.6,14.9,34.1c-48.1-32.8-113.6-63.9-134.9-124C-0.1,449.8-1.1,424.1,0.8,400.4"/>
	
		<linearGradient id="SVGID_00000142873252955957054770000017141531204566942626_" gradientUnits="userSpaceOnUse" x1="29.6" y1="249" x2="233.6" y2="249" gradientTransform="matrix(1 0 0 -1 0 824)">
		<stop  offset="0" style="stop-color:#39784C"/>
		<stop  offset="1" style="stop-color:#244023"/>
	</linearGradient>
	<path style="fill:url(#SVGID_00000142873252955957054770000017141531204566942626_);" d="M29.6,523.1
		c26.8,60.7,93.9,65.7,138.9,102.6c8.3,7.3,16.9,13.6,26.3,17.9l0.5-0.5c-10.3-9.4-22.3-20-29.5-32.1c-26.3-36.6-17.1-88-36.8-127.4
		c17.9,21.5,34.2,43.8,45.1,68.1c16.1,39.7,22.3,84.6,59.5,114.7c-40.3-13.3-87.6-9.5-123.2-34.4C71.5,608.1,36.8,567.6,29.6,523.1"
		/>
	
		<linearGradient id="SVGID_00000044157662142830171730000011936996256296457865_" gradientUnits="userSpaceOnUse" x1="308.1342" y1="211.418" x2="140.4787" y2="114.6209" gradientTransform="matrix(1 0 0 -1 0 824)">
		<stop  offset="0" style="stop-color:#4D6BB3"/>
		<stop  offset="1" style="stop-color:#001823"/>
	</linearGradient>
	<path style="fill:url(#SVGID_00000044157662142830171730000011936996256296457865_);" d="M98.4,636.2
		c43,48.9,113.2,32.6,170.4,45.4c8.1,1.1,15.5,4.3,24.1,3c-6.8-4.3-16.3-3.8-23.7-7.8c-44.9-15.8-51.5-64.4-75.8-97.2
		c31.1,20.7,57.3,48.6,86,75.6c20.6,18.1,45.5,26.4,71.7,31.8c-6.3,2.3-14.5,1.7-21.3,3.4c-47,11.6-99.3,30.5-149.1,13.6
		C148.2,693.8,114.7,668.2,98.4,636.2"/>
	
		<linearGradient id="SVGID_00000152263849529177283620000002802896768646834363_" gradientUnits="userSpaceOnUse" x1="174.2" y1="86.6853" x2="739.9999" y2="86.6853" gradientTransform="matrix(1 0 0 -1 0 824)">
		<stop  offset="0" style="stop-color:#39784C"/>
		<stop  offset="1" style="stop-color:#244023"/>
	</linearGradient>
	<path style="fill:url(#SVGID_00000152263849529177283620000002802896768646834363_);" d="M681.8,750.2
		c-48.5,18.1-99-0.8-136.8-29.5c-15.3-9.7-28.8-23.7-48.6-22.5c-7.2-0.1-14.1,0.2-20.2,2c36.8,17.1,70.9,40.7,102.1,70.9
		c-5.3,6-12.1,11.6-18.5,16.8c-30.1-32.4-63.4-63.6-100.7-81.8c-7.3,1-14.2,5.3-20.8,8.9c-30.4,19.2-60.4,43.9-82.9,74.1l-19.4-16
		c31-31.3,65.2-55.7,102.7-73.1c-26.2-8.3-45.9,4.9-65.2,18.9c-7.8,5.7-15.5,11.4-23.6,16c-32.6,22.8-79.4,33.4-118.7,17.7
		c-21.2-8-41.7-19.9-57-39.1c31,21.3,77.1,23.6,112.3,9.7c47.2-20.5,96.3-46.5,153.3-34.1c8.9,0.2,17.5,9,25.9,1.5
		c42.4-11,90.3-3.4,126.7,16l37.6,15c35,13,80.1,9.4,110-11.9C724.5,728.7,703.5,742.4,681.8,750.2"/>
	
		<linearGradient id="SVGID_00000101797220076121264300000011536335409662277004_" gradientUnits="userSpaceOnUse" x1="795.5955" y1="224.9039" x2="583.274" y2="102.3187" gradientTransform="matrix(1 0 0 -1 0 824)">
		<stop  offset="0" style="stop-color:#4D6BB3"/>
		<stop  offset="1" style="stop-color:#001823"/>
	</linearGradient>
	<path style="fill:url(#SVGID_00000101797220076121264300000011536335409662277004_);" d="M733.7,700.1
		c-54.4,20.5-109.1-4.7-161.2-13.1l-10-1.3v-0.3c24.9-5.6,49.1-13.1,68.9-31c29.2-28.1,55.2-57,87.6-79.1
		c-24.1,30.8-26.6,74.7-66.3,94.6c-9.8,6.4-22.2,7.6-32.4,12.4c14.5,0.3,27.7-4.8,42-6.3c53.3-8.4,114.2,0.2,151.6-45.2
		C800,662.5,765.3,689,733.7,700.1"/>
	
		<linearGradient id="SVGID_00000125593390050089116050000007853244678360106905_" gradientUnits="userSpaceOnUse" x1="921.2319" y1="411.5388" x2="729.795" y2="301.0114" gradientTransform="matrix(1 0 0 -1 0 824)">
		<stop  offset="0" style="stop-color:#4D6BB3"/>
		<stop  offset="1" style="stop-color:#001823"/>
	</linearGradient>
	<path style="fill:url(#SVGID_00000125593390050089116050000007853244678360106905_);" d="M832.5,547.1
		c-21.5,14-43.2,27.1-63.9,43.1v-2c31.6-52.6,16.2-124.7,35.7-182.6l7.2-19.4c-4,36,11.6,66.5,10.5,102.7
		c-1.1,21.8-8.2,41.2-19.7,58.6h2c15.5-20.3,27.6-42,45.7-61.3c28.1-27.1,56.7-54.9,60.4-92.5C919.8,456.6,884.5,511.6,832.5,547.1"
		/>
</g>
<g>
	<g id="Layer_2_00000062907716348489095740000001888569585436818591_">
		
			<linearGradient id="SVGID_00000138563663661513545390000016847864795779846797_" gradientUnits="userSpaceOnUse" x1="195.8889" y1="464.1568" x2="431.1875" y2="328.3099" gradientTransform="matrix(1 0 0 -1 0 648)">
			<stop  offset="0" style="stop-color:#39784C"/>
			<stop  offset="1" style="stop-color:#244023"/>
		</linearGradient>
		<path style="fill:url(#SVGID_00000138563663661513545390000016847864795779846797_);" d="M303.5,77.1C326,63.1,377.7,35.2,449,34
			c60.7-1.2,107.1,17.4,130.5,28.8c-42.3,5.9-108,21-176.6,63.3c-37.6,23.2-66.5,48.7-87.8,70.8c-22.2,24.3-62.9,75.9-82.6,153.6
			c-23.5,93.3-2.6,170.2,7.8,201.5c-16.3-16.6-92.6-98.2-89.3-220.2c1.9-70.1,29.1-122.1,44.9-147.7c11.7-18.7,28.8-42,53.1-65.1
			C268.4,100.7,287.5,87.1,303.5,77.1L303.5,77.1z"/>
	</g>
	<g id="Layer_3_00000090296528372281975540000006020728586359133060_">
		
			<linearGradient id="SVGID_00000127024239949531579080000009528585019663574703_" gradientUnits="userSpaceOnUse" x1="731.7742" y1="440.2455" x2="214.2255" y2="141.4352" gradientTransform="matrix(1 0 0 -1 0 648)">
			<stop  offset="0" style="stop-color:#4D6BB3"/>
			<stop  offset="1" style="stop-color:#001823"/>
		</linearGradient>
		<path style="fill:url(#SVGID_00000127024239949531579080000009528585019663574703_);" d="M351.2,623.8
			c-15.8-6.6-33.8-15.3-52.8-27.2c-23.9-14.9-43.2-30.7-58-44.7c-12.7-25.8-31.9-73.7-32.6-136.3c-0.2-24.5,2.3-46.6,6.2-65.5
			s8.8-35,13.4-47.4c6-16.6,15.1-37.1,28.9-58.9c13-20.6,26.7-36.8,38.7-49c-15.8,3.7-31.7,7.6-47.5,11.3
			C268.8,179,311.6,132,381.2,98.5c85.4-41,163.5-38.8,198.7-35.7C603.5,73.3,683,112,729.4,204.7c8.1,16.4,56.1,116.3,15.7,232.4
			c-22.1,63.6-60.9,104-82.2,123.3c8.8-10.6,66.7-82.4,48.7-176.5c-10-52.6-38.9-87.5-53.5-103c-14.2-13.1-56-48.2-121.2-56.7
			c-62.7-8.1-110.4,13.2-127.9,22.1c4.9,1.6,13.5,5.2,21.7,13.1c8.9,8.6,12.9,18,14.6,22.9c-9.9-2.9-50.2-13.4-90.4,8.4
			c-19.9,10.7-32.2,25.2-38.8,34.6c8.1,4.1,16.3,8.1,24.4,12.2C343.8,432.9,347.5,528.4,351.2,623.8L351.2,623.8z"/>
	</g>
	<g id="Layer_4_00000087373811180845618280000004594107004178051255_">
		
			<linearGradient id="SVGID_00000170992641354148351450000013964954321891151799_" gradientUnits="userSpaceOnUse" x1="274.964" y1="264.9274" x2="578.7505" y2="89.5349" gradientTransform="matrix(1 0 0 -1 0 648)">
			<stop  offset="0" style="stop-color:#39784C"/>
			<stop  offset="1" style="stop-color:#244023"/>
		</linearGradient>
		<path style="fill:url(#SVGID_00000170992641354148351450000013964954321891151799_);" d="M538.2,628.7
			c-20.2,7.3-54.2,16.6-96.9,15c-39.7-1.5-71-12-90.2-20.1c-16-12-40.9-33.9-59.7-68.6c-9.5-17.7-44.1-81.7-17-148.5
			c5.7-14.1,13.2-25.9,21.3-35.8c0.9-1.2,1.9-2.2,2.8-3.4c10.6-12.3,21.8-21.4,30.7-27.7c-10.3,1.2-20.7,2.2-31.1,3.4
			c5.6-9.6,14.5-22.4,28.5-34.4c7.1-6,14.1-10.7,20.2-14.3c19.7-3.6,50.3-6.7,86.6-0.1c28.1,5.1,50.6,14.3,66.3,22.3
			c7.1,3.5,25,13.2,37.5,34.6c13.7,23.2,12.5,45.8,11.7,53.5c1.3,1.4,24.9,28.2,14.9,61.2c-7,23.1-25.8,34-30.1,36.4
			c2.1-7.4,1.5-13.1,0.9-16.6c-5-27-41.9-42.1-41.9-42.1l0,0c-3.4-1.7-6.6-3.4-9.9-4.9c0,0-5.5-2.4-9.9-4.1
			c-9.9-3.6-32.1-0.7-40.1,3.1c-36.2,17.3-29.7,167.6,22.3,186.6c15.6,5.7,52.1,5.8,55.2,5.8C521.8,630.2,531.3,629.4,538.2,628.7
			L538.2,628.7z"/>
	</g>
	<g id="Layer_5_00000163782700531665227160000013794246974067854732_">
		<polygon class="st18" points="511.8,372.9 529.2,406.5 536.9,394.1 		"/>
	</g>
	<g id="Layer_6_00000067203819056688296060000013069901656354455177_">
		
			<linearGradient id="SVGID_00000150076472890071763730000009393966401171375233_" gradientUnits="userSpaceOnUse" x1="544.4801" y1="152.759" x2="387.2648" y2="61.9874" gradientTransform="matrix(1 0 0 -1 0 648)">
			<stop  offset="0" style="stop-color:#4D6BB3"/>
			<stop  offset="1" style="stop-color:#001823"/>
		</linearGradient>
		<path style="fill:url(#SVGID_00000150076472890071763730000009393966401171375233_);" d="M419.3,505.9c2-5.8,10.6-28.5,33.6-39.7
			c25.8-12.6,59.1-5.9,82.7,17.3c-0.6-2-1.5-4.8-2.9-8c-9.9-22.1-30-32.7-36.3-35.8c-30.3-15.2-61-7.8-74.3-2.6
			c-6.9,2.7-30.5,12.3-45.6,38c-2.1,3.6-12.9,22.5-12,49.4c0.9,27.4,13.7,46.5,18.9,53.6c6.3,9.2,17.5,22.8,35.4,33.8
			c20.9,12.9,40.2,15.6,57.1,18c14.5,2.1,36.2,3.5,62.5-1c-41.2-7-68.4-23.5-82.7-33.9c-20.9-15.2-27.6-27-30-31.4
			C413.2,539.8,417.1,515.8,419.3,505.9L419.3,505.9z"/>
	</g>
</g>
</svg>
