<?xml version="1.0" encoding="utf-8"?>
<!-- Generator: Adobe Illustrator 26.3.1, SVG Export Plug-In . SVG Version: 6.00 Build 0)  -->
<svg version="1.1" xmlns="http://www.w3.org/2000/svg" xmlns:xlink="http://www.w3.org/1999/xlink" x="0px" y="0px"
	 viewBox="0 0 911.8 821.9" style="enable-background:new 0 0 911.8 821.9;" xml:space="preserve">
<style type="text/css">
	.st0{fill:url(#SVGID_1_);}
	.st1{fill:url(#SVGID_00000103264761504017412150000005127793464819458964_);}
	.st2{fill:url(#SVGID_00000105398844095309954020000015763824035200284292_);}
	.st3{fill:url(#SVGID_00000054974405326035099620000016880015908828601013_);}
	.st4{fill:url(#SVGID_00000157297195359098780170000010029034143610320570_);}
	.st5{fill:url(#SVGID_00000178883471257247910710000015465536544450074531_);}
	.st6{fill:url(#SVGID_00000021829147309544242420000012921784065676617621_);}
	.st7{fill:url(#SVGID_00000176025323504766502720000018012189143671170433_);}
	.st8{fill:url(#SVGID_00000032631285139684907790000007502388446039569055_);}
	.st9{fill:url(#SVGID_00000007387544980776946820000014235597039412106628_);}
	.st10{fill:url(#SVGID_00000018231988365793148320000002286784686039969193_);}
	.st11{fill:url(#SVGID_00000054975156782728173210000017314155915658713743_);}
	.st12{fill:url(#SVGID_00000081633051716255430580000000928602257093333899_);}
	.st13{fill:url(#SVGID_00000183248430737606755590000008039965022461909160_);}
	.st14{fill:url(#SVGID_00000124128115393351506360000005185010626911446938_);}
	.st15{fill:url(#SVGID_00000080898586062563278420000004684766687719544739_);}
	.st16{fill:url(#SVGID_00000102541541451846856650000014420777047288488125_);}
	.st17{fill:url(#SVGID_00000000184579913955273490000001985681873924164271_);}
	.st18{fill:#FFFFFF;}
	.st19{fill:url(#SVGID_00000021105022140668686570000000863829082769805474_);}
</style>
<g id="Layer_2">
</g>
<g id="Layer_1">
	<g id="Layer_7">
		<g>
			<linearGradient id="SVGID_1_" gradientUnits="userSpaceOnUse" x1="679.5" y1="571.15" x2="881.7999" y2="571.15">
				<stop  offset="0" style="stop-color:#39784C"/>
				<stop  offset="1" style="stop-color:#244023"/>
			</linearGradient>
			<path class="st0" d="M763.9,644.8c-27.8,7.4-57.5,9.8-84.4,19c45.7-39.2,43.1-99.9,73.6-146.1c9.7-13.1,17.7-26.8,29.1-39.2
				c-18.6,37.2-10.5,85.5-31.8,121.7c-8.2,14.3-20,28.3-32.9,39.6c4.2-0.2,8-3.8,11.7-6.3c34.6-34.6,79.9-44.2,117.3-72.3
				c15-12,28.8-27.6,35.3-44.6C874.6,573.9,817.6,627.7,763.9,644.8"/>
			
				<linearGradient id="SVGID_00000143582843365966965220000001146657063980827524_" gradientUnits="userSpaceOnUse" x1="803.7" y1="371.85" x2="910.4155" y2="371.85">
				<stop  offset="0" style="stop-color:#39784C"/>
				<stop  offset="1" style="stop-color:#244023"/>
			</linearGradient>
			<path style="fill:url(#SVGID_00000143582843365966965220000001146657063980827524_);" d="M888.6,412.6
				c-17,24.1-37.4,46.5-53.1,71c1.8-19.4,4-43.2-3.5-61.6c-13.1-39.6-24.6-79.7-28.3-123.2l0.5-16.6c9.8,44.4,53.4,74.9,50.7,124.6
				c1,12.1-2.7,22.3-5,32.9l0.8,0.8l2-2.2c6.5-24.4,9.7-50,19.8-72.8c14.3-32.8,32.1-65.9,24.8-105.4
				C918.9,306.8,912.3,369.1,888.6,412.6"/>
			
				<linearGradient id="SVGID_00000176043746933071516120000009747214247933703100_" gradientUnits="userSpaceOnUse" x1="900.5472" y1="226.7905" x2="809.6438" y2="279.2743">
				<stop  offset="0" style="stop-color:#4D6BB3"/>
				<stop  offset="1" style="stop-color:#001823"/>
			</linearGradient>
			<path style="fill:url(#SVGID_00000176043746933071516120000009747214247933703100_);" d="M861.9,161.3
				c28.6,38.7,34.8,100.4,14,144.8c-7.8,18.8-13.2,38.9-16.3,59.7c-1.4-3.6-1.8-8.4-3.1-12.4C845.2,310,804,279,787.1,238
				c-5.3-13.4-9.9-27.3-12.5-41.8c18,33.4,62.6,50.7,74.7,87.5c5,9.3,4.7,21,7.8,31c0.7,0,1.3-0.5,1.3-1.1
				c-5.3-37.9-3.7-77.6,1.4-115.1c-0.3-20.3-2.3-40-13.6-55.7C853.6,146.9,856.8,155,861.9,161.3"/>
			
				<linearGradient id="SVGID_00000005230907129703527200000014803360980893201312_" gradientUnits="userSpaceOnUse" x1="734.0001" y1="170" x2="845.2" y2="170">
				<stop  offset="0" style="stop-color:#39784C"/>
				<stop  offset="1" style="stop-color:#244023"/>
			</linearGradient>
			<path style="fill:url(#SVGID_00000005230907129703527200000014803360980893201312_);" d="M841.7,153.9c7.5,33.9-3.5,67,3.5,101.2
				l-0.3,0.3c-18.5-36.3-57.6-53.4-84.6-82.5c-15.7-17.2-22.4-38.2-26.3-60.5c15.5,37.2,57.1,45.5,81,76.8
				c8,7.2,10.6,17.2,15.8,25.5l0.8-0.8c-13.8-29.4-18.4-62.4-28-93.8c-4.8-13.6-14.3-26.9-27.1-35.5
				C808,91.1,835.2,123.9,841.7,153.9"/>
			
				<linearGradient id="SVGID_00000131329807335860211220000016904575618868774079_" gradientUnits="userSpaceOnUse" x1="770.8938" y1="87.5619" x2="728.9778" y2="111.7624">
				<stop  offset="0" style="stop-color:#4D6BB3"/>
				<stop  offset="1" style="stop-color:#001823"/>
			</linearGradient>
			<path style="fill:url(#SVGID_00000131329807335860211220000016904575618868774079_);" d="M757.7,76.1
				c23.7,21.2,34.4,48.6,41.3,77l3.9,9c-34.4-24.7-65.5-57.9-87.4-93L688.7,42C712.2,52,737.6,58,757.7,76.1"/>
			
				<linearGradient id="SVGID_00000026144220576392844520000002224690103153412754_" gradientUnits="userSpaceOnUse" x1="226.2183" y1="65.0643" x2="90.0922" y2="143.6577">
				<stop  offset="0" style="stop-color:#4D6BB3"/>
				<stop  offset="1" style="stop-color:#001823"/>
			</linearGradient>
			<path style="fill:url(#SVGID_00000026144220576392844520000002224690103153412754_);" d="M215.5,46.5
				c-23.7,20.8-40.2,47.1-57.8,71.7c-15.8,19.5-36,32.5-53.9,49.2c9.7-20,10-44,23.7-62.3C147,71.1,183.2,59.1,215.5,46.5"/>
			
				<linearGradient id="SVGID_00000042720322524221730680000005431724321358946449_" gradientUnits="userSpaceOnUse" x1="62.1302" y1="155.8571" x2="136.3122" y2="198.6851">
				<stop  offset="0" style="stop-color:#39784C"/>
				<stop  offset="1" style="stop-color:#244023"/>
			</linearGradient>
			<path style="fill:url(#SVGID_00000042720322524221730680000005431724321358946449_);" d="M85.7,119
				c11.5-14.3,26.2-24.3,42.6-28.5c-32,22-29.9,61.3-40,94.1c-3.2,12.1-8.8,23.2-11.6,35.7l0.8,0.6c5.3-14.1,14.7-27.3,26.3-38.7
				c22.7-21,56.3-34.1,67.4-65.1c-0.5,43.1-36.4,77-70.8,101.2c-14.2,12.5-27.9,26.6-35.7,42.6c-0.8-10.9,1.6-21.8,0.8-33.4
				C61.8,189.9,59.1,146.9,85.7,119"/>
			
				<linearGradient id="SVGID_00000027600888664930336350000018240484789912655747_" gradientUnits="userSpaceOnUse" x1="138.7753" y1="212.4886" x2="4.2484" y2="290.1587">
				<stop  offset="0" style="stop-color:#4D6BB3"/>
				<stop  offset="1" style="stop-color:#001823"/>
			</linearGradient>
			<path style="fill:url(#SVGID_00000027600888664930336350000018240484789912655747_);" d="M21,247.7c-1-38.1,14.8-69.3,37.1-97.7
				c0.7-0.3,1.1-1,2-0.8c-24.5,37.3-4.2,84.3-5.4,126.7l-3.2,43.4c0.5,0.3,0.5,1.6,1.6,1.1c1.4-4.8,1.8-10,2.7-15
				c5.8-35,36.2-59.9,62.8-84.1c5.7-6.3,10.7-12.8,13.6-20.2c-2.2,17.4-7.6,35-14.9,51.2C96.7,292.7,58.5,325.8,51.5,372
				C48.1,327.7,18,294.6,21,247.7"/>
			
				<linearGradient id="SVGID_00000033351892265186261870000011605542460548863653_" gradientUnits="userSpaceOnUse" x1="4.391597e-02" y1="377.9" x2="105.7959" y2="377.9">
				<stop  offset="0" style="stop-color:#39784C"/>
				<stop  offset="1" style="stop-color:#244023"/>
			</linearGradient>
			<path style="fill:url(#SVGID_00000033351892265186261870000011605542460548863653_);" d="M2.4,301.9c2.7-11.9,4.9-24.3,10-35.2
				c-9.9,50.4,24.1,86.8,35.2,130.5c4.7,16.3,5.8,33.9,12.5,49.2c0.6,0.3,1.1-0.3,1.5-0.8C45.1,399.1,69,356,93,319.7
				c5.8-9.8,9.2-20.8,12.1-32.1c2.6,21-2.7,45.2-5.8,67c-5.8,27.8-14.5,54.1-22.1,81c-5,16.8-3.7,35.8-1.1,53.5l-2.4-2
				c-17.6-32.5-52.5-57.8-62.8-93.3C2.3,365.5-3.4,332.7,2.4,301.9"/>
			
				<linearGradient id="SVGID_00000090259792266465816240000012097396431242204814_" gradientUnits="userSpaceOnUse" x1="138.2747" y1="459.359" x2="34.674" y2="519.1736">
				<stop  offset="0" style="stop-color:#4D6BB3"/>
				<stop  offset="1" style="stop-color:#001823"/>
			</linearGradient>
			<path style="fill:url(#SVGID_00000090259792266465816240000012097396431242204814_);" d="M0.8,400.4c3.9,53.5,61.3,81.7,88,125.9
				c6.3,9,11.8,19.1,20.2,26.6c-1.3-5.7-6.6-10.5-8.6-16.3c-9.3-18.5-12.7-40.7-10.5-63.1c2.6-27.3,14-52.6,9.6-81.3
				c23.4,50.5,16.3,113.5,29.4,168.2c3.4,12,10.3,22.6,14.9,34.1c-48.1-32.8-113.6-63.9-134.9-124C-0.1,449.8-1.1,424.1,0.8,400.4"
				/>
			
				<linearGradient id="SVGID_00000083808668691284005400000001935006989303370389_" gradientUnits="userSpaceOnUse" x1="29.6" y1="575" x2="233.6" y2="575">
				<stop  offset="0" style="stop-color:#39784C"/>
				<stop  offset="1" style="stop-color:#244023"/>
			</linearGradient>
			<path style="fill:url(#SVGID_00000083808668691284005400000001935006989303370389_);" d="M29.6,523.1
				c26.8,60.7,93.9,65.7,138.9,102.6c8.3,7.3,16.9,13.6,26.3,17.9l0.5-0.5c-10.3-9.4-22.3-20-29.5-32.1
				c-26.3-36.6-17.1-88-36.8-127.4c17.9,21.5,34.2,43.8,45.1,68.1c16.1,39.7,22.3,84.6,59.5,114.7c-40.3-13.3-87.6-9.5-123.2-34.4
				C71.5,608.1,36.8,567.6,29.6,523.1"/>
			
				<linearGradient id="SVGID_00000039840201825572144960000002512623167022718107_" gradientUnits="userSpaceOnUse" x1="308.1342" y1="612.582" x2="140.4787" y2="709.3791">
				<stop  offset="0" style="stop-color:#4D6BB3"/>
				<stop  offset="1" style="stop-color:#001823"/>
			</linearGradient>
			<path style="fill:url(#SVGID_00000039840201825572144960000002512623167022718107_);" d="M98.4,636.2
				c43,48.9,113.2,32.6,170.4,45.4c8.1,1.1,15.5,4.3,24.1,3c-6.8-4.3-16.3-3.8-23.7-7.8c-44.9-15.8-51.5-64.4-75.8-97.2
				c31.1,20.7,57.3,48.6,86,75.6c20.6,18.1,45.5,26.4,71.7,31.8c-6.3,2.3-14.5,1.7-21.3,3.4c-47,11.6-99.3,30.5-149.1,13.6
				C148.2,693.8,114.7,668.2,98.4,636.2"/>
			
				<linearGradient id="SVGID_00000131356376584023705660000015963476915841334954_" gradientUnits="userSpaceOnUse" x1="174.2" y1="737.3146" x2="739.9999" y2="737.3146">
				<stop  offset="0" style="stop-color:#39784C"/>
				<stop  offset="1" style="stop-color:#244023"/>
			</linearGradient>
			<path style="fill:url(#SVGID_00000131356376584023705660000015963476915841334954_);" d="M681.8,750.2
				c-48.5,18.1-99-0.8-136.8-29.5c-15.3-9.7-28.8-23.7-48.6-22.5c-7.2-0.1-14.1,0.2-20.2,2c36.8,17.1,70.9,40.7,102.1,70.9
				c-5.3,6-12.1,11.6-18.5,16.8c-30.1-32.4-63.4-63.6-100.7-81.8c-7.3,1-14.2,5.3-20.8,8.9c-30.4,19.2-60.4,43.9-82.9,74.1l-19.4-16
				c31-31.3,65.2-55.7,102.7-73.1c-26.2-8.3-45.9,4.9-65.2,18.9c-7.8,5.7-15.5,11.4-23.6,16c-32.6,22.8-79.4,33.4-118.7,17.7
				c-21.2-8-41.7-19.9-57-39.1c31,21.3,77.1,23.6,112.3,9.7c47.2-20.5,96.3-46.5,153.3-34.1c8.9,0.2,17.5,9,25.9,1.5
				c42.4-11,90.3-3.4,126.7,16l37.6,15c35,13,80.1,9.4,110-11.9C724.5,728.7,703.5,742.4,681.8,750.2"/>
			
				<linearGradient id="SVGID_00000121242750367675919060000009210093002107528342_" gradientUnits="userSpaceOnUse" x1="795.5955" y1="599.0961" x2="583.2741" y2="721.6813">
				<stop  offset="0" style="stop-color:#4D6BB3"/>
				<stop  offset="1" style="stop-color:#001823"/>
			</linearGradient>
			<path style="fill:url(#SVGID_00000121242750367675919060000009210093002107528342_);" d="M733.7,700.1
				c-54.4,20.5-109.1-4.7-161.2-13.1l-10-1.3v-0.3c24.9-5.6,49.1-13.1,68.9-31c29.2-28.1,55.2-57,87.6-79.1
				c-24.1,30.8-26.6,74.7-66.3,94.6c-9.8,6.4-22.2,7.6-32.4,12.4c14.5,0.3,27.7-4.8,42-6.3c53.3-8.4,114.2,0.2,151.6-45.2
				C800,662.5,765.3,689,733.7,700.1"/>
			
				<linearGradient id="SVGID_00000152975797923227065480000006164682947334740400_" gradientUnits="userSpaceOnUse" x1="921.2319" y1="412.4612" x2="729.795" y2="522.9886">
				<stop  offset="0" style="stop-color:#4D6BB3"/>
				<stop  offset="1" style="stop-color:#001823"/>
			</linearGradient>
			<path style="fill:url(#SVGID_00000152975797923227065480000006164682947334740400_);" d="M832.5,547.1
				c-21.5,14-43.2,27.1-63.9,43.1v-2c31.6-52.6,16.2-124.7,35.7-182.6l7.2-19.4c-4,36,11.6,66.5,10.5,102.7
				c-1.1,21.8-8.2,41.2-19.7,58.6h2c15.5-20.3,27.6-42,45.7-61.3c28.1-27.1,56.7-54.9,60.4-92.5
				C919.8,456.6,884.5,511.6,832.5,547.1"/>
		</g>
	</g>
	<g>
		<g id="Layer_2_00000062907716348489095740000001888569585436818591_">
			
				<linearGradient id="SVGID_00000121988695877993820260000014765022818070420879_" gradientUnits="userSpaceOnUse" x1="195.9241" y1="359.8482" x2="431.2087" y2="495.687" gradientTransform="matrix(1 0 0 1 0 -176)">
				<stop  offset="0" style="stop-color:#39784C"/>
				<stop  offset="1" style="stop-color:#244023"/>
			</linearGradient>
			<path style="fill:url(#SVGID_00000121988695877993820260000014765022818070420879_);" d="M303.5,77.1C326,63.1,377.7,35.2,449,34
				c60.7-1.2,107.1,17.4,130.5,28.8c-42.3,5.9-108,21-176.6,63.3c-37.6,23.2-66.5,48.7-87.8,70.8c-22.2,24.3-62.9,75.9-82.6,153.6
				c-23.5,93.3-2.6,170.2,7.8,201.5c-16.3-16.6-92.6-98.2-89.3-220.2c1.9-70.1,29.1-122.1,44.9-147.7c11.7-18.7,28.8-42,53.1-65.1
				C268.4,100.7,287.5,87.1,303.5,77.1L303.5,77.1z"/>
		</g>
		<g id="Layer_3_00000090296528372281975540000006020728586359133060_">
			
				<linearGradient id="SVGID_00000021805824180783718160000016839053325285504133_" gradientUnits="userSpaceOnUse" x1="731.6151" y1="383.5971" x2="214.1331" y2="682.3689" gradientTransform="matrix(1 0 0 1 0 -176)">
				<stop  offset="0" style="stop-color:#4D6BB3"/>
				<stop  offset="1" style="stop-color:#001823"/>
			</linearGradient>
			<path style="fill:url(#SVGID_00000021805824180783718160000016839053325285504133_);" d="M351.2,623.8
				c-15.8-6.6-33.8-15.3-52.8-27.2c-23.9-14.9-43.2-30.7-58-44.7c-12.7-25.8-31.9-73.7-32.6-136.3c-0.2-24.5,2.3-46.6,6.2-65.5
				s8.8-35,13.4-47.4c6-16.6,15.1-37.1,28.9-58.9c13-20.6,26.7-36.8,38.7-49c-15.8,3.7-31.7,7.6-47.5,11.3
				c21.3-27.1,64.1-74.1,133.7-107.6c85.4-41,163.5-38.8,198.7-35.7c23.6,10.5,103.1,49.2,149.5,141.9
				c8.1,16.4,56.1,116.3,15.7,232.4c-22.1,63.6-60.9,104-82.2,123.3c8.8-10.6,66.7-82.4,48.7-176.5c-10-52.6-38.9-87.5-53.5-103
				c-14.2-13.1-56-48.2-121.2-56.7c-62.7-8.1-110.4,13.2-127.9,22.1c4.9,1.6,13.5,5.2,21.7,13.1c8.9,8.6,12.9,18,14.6,22.9
				c-9.9-2.9-50.2-13.4-90.4,8.4c-19.9,10.7-32.2,25.2-38.8,34.6c8.1,4.1,16.3,8.1,24.4,12.2C343.8,432.9,347.5,528.4,351.2,623.8
				L351.2,623.8z"/>
		</g>
		<g id="Layer_4_00000087373811180845618280000004594107004178051255_">
			
				<linearGradient id="SVGID_00000162349728305761764360000005171215036241424038_" gradientUnits="userSpaceOnUse" x1="274.9131" y1="559.1074" x2="578.7255" y2="734.5149" gradientTransform="matrix(1 0 0 1 0 -176)">
				<stop  offset="0" style="stop-color:#39784C"/>
				<stop  offset="1" style="stop-color:#244023"/>
			</linearGradient>
			<path style="fill:url(#SVGID_00000162349728305761764360000005171215036241424038_);" d="M538.2,628.7
				c-20.2,7.3-54.2,16.6-96.9,15c-39.7-1.5-71-12-90.2-20.1c-16-12-40.9-33.9-59.7-68.6c-9.5-17.7-44.1-81.7-17-148.5
				c5.7-14.1,13.2-25.9,21.3-35.8c0.9-1.2,1.9-2.2,2.8-3.4c10.6-12.3,21.8-21.4,30.7-27.7c-10.3,1.2-20.7,2.2-31.1,3.4
				c5.6-9.6,14.5-22.4,28.5-34.4c7.1-6,14.1-10.7,20.2-14.3c19.7-3.6,50.3-6.7,86.6-0.1c28.1,5.1,50.6,14.3,66.3,22.3
				c7.1,3.5,25,13.2,37.5,34.6c13.7,23.2,12.5,45.8,11.7,53.5c1.3,1.4,24.9,28.2,14.9,61.2c-7,23.1-25.8,34-30.1,36.4
				c2.1-7.4,1.5-13.1,0.9-16.6c-5-27-41.9-42.1-41.9-42.1l0,0c-3.4-1.7-6.6-3.4-9.9-4.9c0,0-5.5-2.4-9.9-4.1
				c-9.9-3.6-32.1-0.7-40.1,3.1c-36.2,17.3-29.7,167.6,22.3,186.6c15.6,5.7,52.1,5.8,55.2,5.8C521.8,630.2,531.3,629.4,538.2,628.7
				L538.2,628.7z"/>
		</g>
		<g id="Layer_5_00000163782700531665227160000013794246974067854732_">
			<polygon class="st18" points="511.8,372.9 529.2,406.5 536.9,394.1 			"/>
		</g>
		<g id="Layer_6_00000067203819056688296060000013069901656354455177_">
			
				<linearGradient id="SVGID_00000065044203741493205330000000753717840402918815_" gradientUnits="userSpaceOnUse" x1="544.3998" y1="671.1768" x2="387.1231" y2="761.9839" gradientTransform="matrix(1 0 0 1 0 -176)">
				<stop  offset="0" style="stop-color:#4D6BB3"/>
				<stop  offset="1" style="stop-color:#001823"/>
			</linearGradient>
			<path style="fill:url(#SVGID_00000065044203741493205330000000753717840402918815_);" d="M419.3,505.9c2-5.8,10.6-28.5,33.6-39.7
				c25.8-12.6,59.1-5.9,82.7,17.3c-0.6-2-1.5-4.8-2.9-8c-9.9-22.1-30-32.7-36.3-35.8c-30.3-15.2-61-7.8-74.3-2.6
				c-6.9,2.7-30.5,12.3-45.6,38c-2.1,3.6-12.9,22.5-12,49.4c0.9,27.4,13.7,46.5,18.9,53.6c6.3,9.2,17.5,22.8,35.4,33.8
				c20.9,12.9,40.2,15.6,57.1,18c14.5,2.1,36.2,3.5,62.5-1c-41.2-7-68.4-23.5-82.7-33.9c-20.9-15.2-27.6-27-30-31.4
				C413.2,539.8,417.1,515.8,419.3,505.9L419.3,505.9z"/>
		</g>
	</g>
</g>
</svg>
