<svg width="150" height="55" viewBox="0 0 150 55" fill="none" xmlns="http://www.w3.org/2000/svg">
<rect x="1" y="1" width="148" height="53" stroke="white" stroke-width="2"/>
<path d="M33.0137 27.12H34.1737C34.5337 27.12 34.8203 27.0733 35.0337 26.98C35.247 26.8733 35.407 26.7267 35.5137 26.54C35.6337 26.3533 35.7137 26.1267 35.7537 25.86C35.7937 25.58 35.8137 25.26 35.8137 24.9C35.8137 24.54 35.7937 24.2267 35.7537 23.96C35.7137 23.68 35.627 23.4467 35.4937 23.26C35.3737 23.06 35.2003 22.9133 34.9737 22.82C34.747 22.7267 34.447 22.68 34.0737 22.68H33.0137V27.12ZM30.9737 20.76H34.2537C36.6537 20.76 37.8537 22.1533 37.8537 24.94C37.8537 25.7667 37.7203 26.48 37.4537 27.08C37.2003 27.6667 36.747 28.14 36.0937 28.5L38.2937 35H36.1337L34.2337 28.92H33.0137V35H30.9737V20.76ZM39.4893 20.76H45.5693V22.68H41.5293V26.86H45.0493V28.78H41.5293V32.96H45.5693V35H39.4893V20.76ZM46.7716 24.12C46.7716 23.5467 46.8716 23.04 47.0716 22.6C47.2716 22.16 47.5316 21.8 47.8516 21.52C48.185 21.2267 48.5516 21.0067 48.9516 20.86C49.365 20.7133 49.7783 20.64 50.1916 20.64C50.605 20.64 51.0116 20.7133 51.4116 20.86C51.825 21.0067 52.1916 21.2267 52.5116 21.52C52.845 21.8 53.1116 22.16 53.3116 22.6C53.5116 23.04 53.6116 23.5467 53.6116 24.12V24.84H51.5716V24.12C51.5716 23.6267 51.4316 23.2667 51.1516 23.04C50.885 22.8 50.565 22.68 50.1916 22.68C49.8183 22.68 49.4916 22.8 49.2116 23.04C48.945 23.2667 48.8116 23.6267 48.8116 24.12V31.64C48.8116 32.1333 48.945 32.5 49.2116 32.74C49.4916 32.9667 49.8183 33.08 50.1916 33.08C50.565 33.08 50.885 32.9667 51.1516 32.74C51.4316 32.5 51.5716 32.1333 51.5716 31.64V28.96H49.9516V27.16H53.6116V31.64C53.6116 32.2267 53.5116 32.74 53.3116 33.18C53.1116 33.6067 52.845 33.9667 52.5116 34.26C52.1916 34.54 51.825 34.7533 51.4116 34.9C51.0116 35.0467 50.605 35.12 50.1916 35.12C49.7783 35.12 49.365 35.0467 48.9516 34.9C48.5516 34.7533 48.185 34.54 47.8516 34.26C47.5316 33.9667 47.2716 33.6067 47.0716 33.18C46.8716 32.74 46.7716 32.2267 46.7716 31.64V24.12ZM55.4673 20.76H57.5073V35H55.4673V20.76ZM66.0893 24.86H64.0493V24.4C64.0493 23.9333 63.936 23.5333 63.7093 23.2C63.496 22.8533 63.1293 22.68 62.6093 22.68C62.3293 22.68 62.096 22.7333 61.9093 22.84C61.736 22.9467 61.596 23.0867 61.4893 23.26C61.396 23.42 61.3293 23.6133 61.2893 23.84C61.2493 24.0533 61.2293 24.28 61.2293 24.52C61.2293 24.8 61.236 25.04 61.2493 25.24C61.276 25.4267 61.3293 25.5933 61.4093 25.74C61.4893 25.8733 61.6026 25.9933 61.7493 26.1C61.9093 26.2067 62.1226 26.3133 62.3893 26.42L63.9493 27.04C64.4026 27.2133 64.7693 27.42 65.0493 27.66C65.3293 27.8867 65.5426 28.16 65.6893 28.48C65.8493 28.7867 65.956 29.1467 66.0093 29.56C66.0626 29.96 66.0893 30.42 66.0893 30.94C66.0893 31.54 66.0293 32.1 65.9093 32.62C65.7893 33.1267 65.5893 33.5667 65.3093 33.94C65.0426 34.3 64.6826 34.5867 64.2293 34.8C63.776 35.0133 63.2226 35.12 62.5693 35.12C62.076 35.12 61.616 35.0333 61.1893 34.86C60.7626 34.6867 60.396 34.4533 60.0893 34.16C59.7826 33.8533 59.536 33.4933 59.3493 33.08C59.176 32.6667 59.0893 32.22 59.0893 31.74V30.98H61.1293V31.62C61.1293 31.9933 61.236 32.3333 61.4493 32.64C61.676 32.9333 62.0493 33.08 62.5693 33.08C62.916 33.08 63.1826 33.0333 63.3693 32.94C63.5693 32.8333 63.716 32.6933 63.8093 32.52C63.916 32.3333 63.9826 32.1067 64.0093 31.84C64.036 31.5733 64.0493 31.28 64.0493 30.96C64.0493 30.5867 64.036 30.28 64.0093 30.04C63.9826 29.8 63.9226 29.6067 63.8293 29.46C63.7493 29.3133 63.6293 29.1933 63.4693 29.1C63.3226 29.0067 63.1226 28.9067 62.8693 28.8L61.4093 28.2C60.5293 27.84 59.936 27.3667 59.6293 26.78C59.336 26.18 59.1893 25.4333 59.1893 24.54C59.1893 24.0067 59.2626 23.5 59.4093 23.02C59.556 22.54 59.7693 22.1267 60.0493 21.78C60.3426 21.4333 60.7093 21.16 61.1493 20.96C61.5893 20.7467 62.1026 20.64 62.6893 20.64C63.196 20.64 63.656 20.7333 64.0693 20.92C64.496 21.1067 64.856 21.3533 65.1493 21.66C65.456 21.9667 65.6893 22.3133 65.8493 22.7C66.0093 23.0733 66.0893 23.46 66.0893 23.86V24.86ZM68.9543 22.68H66.5943V20.76H73.3543V22.68H70.9943V35H68.9543V22.68ZM76.2949 27.12H77.4549C77.8149 27.12 78.1016 27.0733 78.3149 26.98C78.5283 26.8733 78.6883 26.7267 78.7949 26.54C78.9149 26.3533 78.9949 26.1267 79.0349 25.86C79.0749 25.58 79.0949 25.26 79.0949 24.9C79.0949 24.54 79.0749 24.2267 79.0349 23.96C78.9949 23.68 78.9083 23.4467 78.7749 23.26C78.6549 23.06 78.4816 22.9133 78.2549 22.82C78.0283 22.7267 77.7283 22.68 77.3549 22.68H76.2949V27.12ZM74.2549 20.76H77.5349C79.9349 20.76 81.1349 22.1533 81.1349 24.94C81.1349 25.7667 81.0016 26.48 80.7349 27.08C80.4816 27.6667 80.0283 28.14 79.3749 28.5L81.5749 35H79.4149L77.5149 28.92H76.2949V35H74.2549V20.76ZM85.8905 24.86H85.8505L84.8505 30.02H86.8905L85.8905 24.86ZM85.0305 20.76H86.7305L89.9105 35H87.8705L87.2705 31.94H84.4905L83.8905 35H81.8505L85.0305 20.76ZM91.1613 22.68H88.8013V20.76H95.5613V22.68H93.2013V35H91.1613V22.68ZM96.522 20.76H98.562V35H96.522V20.76ZM100.424 24.12C100.424 23.5467 100.524 23.04 100.724 22.6C100.924 22.16 101.184 21.8 101.504 21.52C101.837 21.2267 102.204 21.0067 102.604 20.86C103.017 20.7133 103.431 20.64 103.844 20.64C104.257 20.64 104.664 20.7133 105.064 20.86C105.477 21.0067 105.844 21.2267 106.164 21.52C106.497 21.8 106.764 22.16 106.964 22.6C107.164 23.04 107.264 23.5467 107.264 24.12V31.64C107.264 32.2267 107.164 32.74 106.964 33.18C106.764 33.6067 106.497 33.9667 106.164 34.26C105.844 34.54 105.477 34.7533 105.064 34.9C104.664 35.0467 104.257 35.12 103.844 35.12C103.431 35.12 103.017 35.0467 102.604 34.9C102.204 34.7533 101.837 34.54 101.504 34.26C101.184 33.9667 100.924 33.6067 100.724 33.18C100.524 32.74 100.424 32.2267 100.424 31.64V24.12ZM102.464 31.64C102.464 32.1333 102.597 32.5 102.864 32.74C103.144 32.9667 103.471 33.08 103.844 33.08C104.217 33.08 104.537 32.9667 104.804 32.74C105.084 32.5 105.224 32.1333 105.224 31.64V24.12C105.224 23.6267 105.084 23.2667 104.804 23.04C104.537 22.8 104.217 22.68 103.844 22.68C103.471 22.68 103.144 22.8 102.864 23.04C102.597 23.2667 102.464 23.6267 102.464 24.12V31.64ZM108.98 20.76H110.94L114.02 29.34H114.06V20.76H116.1V35H114.18L111.06 26.44H111.02V35H108.98V20.76Z" fill="white"/>
</svg>
